<?xml version="1.0" encoding="UTF-8" standalone="no"?>
<!DOCTYPE svg PUBLIC "-//W3C//DTD SVG 1.1//EN"
 "http://www.w3.org/Graphics/SVG/1.1/DTD/svg11.dtd">
<!-- Generated by graphviz version 2.46.0 (20210118.1747)
 -->
<!-- Title: G Pages: 1 -->
<svg width="190pt" height="299pt"
 viewBox="0.00 0.00 190.00 299.00" xmlns="http://www.w3.org/2000/svg" xmlns:xlink="http://www.w3.org/1999/xlink">
<g id="graph0" class="graph" transform="scale(1 1) rotate(0) translate(4 295)">
<title>G</title>
<polygon fill="white" stroke="transparent" points="-4,4 -4,-295 186,-295 186,4 -4,4"/>
<!-- 0 -->
<g id="node1" class="node">
<title>0</title>
<ellipse fill="none" stroke="black" cx="27" cy="-113" rx="27" ry="18"/>
<text text-anchor="middle" x="27" y="-109.3" font-family="Times,serif" font-size="14.00">0</text>
</g>
<!-- 0&#45;&gt;0 -->
<g id="edge1" class="edge">
<title>0&#45;&gt;0</title>
<path fill="none" stroke="black" d="M51.53,-120.75C62.51,-121.49 72,-118.91 72,-113 72,-109.03 67.72,-106.56 61.57,-105.59"/>
<polygon fill="black" stroke="black" points="61.65,-102.09 51.53,-105.25 61.41,-109.09 61.65,-102.09"/>
<text text-anchor="middle" x="77.5" y="-109.3" font-family="Times,serif" font-size="14.00">&#39;a&#39;</text>
</g>
<!-- 1 -->
<g id="node2" class="node">
<title>1</title>
<ellipse fill="none" stroke="black" cx="92" cy="-22" rx="27" ry="18"/>
<ellipse fill="none" stroke="black" cx="92" cy="-22" rx="31" ry="22"/>
<text text-anchor="middle" x="92" y="-18.3" font-family="Times,serif" font-size="14.00">1</text>
</g>
<!-- 0&#45;&gt;1 -->
<g id="edge2" class="edge">
<title>0&#45;&gt;1</title>
<path fill="none" stroke="black" d="M21.52,-95.16C19.22,-84.92 18.25,-71.93 24,-62 30.78,-50.29 42.55,-41.8 54.41,-35.78"/>
<polygon fill="black" stroke="black" points="56.21,-38.81 63.85,-31.48 53.3,-32.44 56.21,-38.81"/>
<text text-anchor="middle" x="29.5" y="-65.8" font-family="Times,serif" font-size="14.00">&#39;a&#39;</text>
</g>
<!-- 0&#45;&gt;1 -->
<g id="edge3" class="edge">
<title>0&#45;&gt;1</title>
<path fill="none" stroke="black" d="M36.14,-95.81C42,-85.8 49.99,-72.85 58,-62 61.33,-57.48 65.07,-52.85 68.81,-48.42"/>
<polygon fill="black" stroke="black" points="71.55,-50.6 75.45,-40.75 66.26,-46.01 71.55,-50.6"/>
<text text-anchor="middle" x="64" y="-65.8" font-family="Times,serif" font-size="14.00">&#39;b&#39;</text>
</g>
<!-- 1&#45;&gt;0 -->
<g id="edge5" class="edge">
<title>1&#45;&gt;0</title>
<path fill="none" stroke="black" d="M86.27,-43.74C82.69,-54.34 77.35,-67.07 70,-77 65.51,-83.06 59.74,-88.69 53.89,-93.59"/>
<polygon fill="black" stroke="black" points="51.7,-90.86 45.99,-99.78 56.02,-96.37 51.7,-90.86"/>
<text text-anchor="middle" x="85" y="-65.8" font-family="Times,serif" font-size="14.00">&#39;b&#39;</text>
</g>
<!-- 1&#45;&gt;1 -->
<g id="edge4" class="edge">
<title>1&#45;&gt;1</title>
<path fill="none" stroke="black" d="M122.62,-26.31C132.83,-26.31 141,-24.88 141,-22 141,-20.2 137.81,-18.97 132.93,-18.29"/>
<polygon fill="black" stroke="black" points="132.81,-14.78 122.62,-17.69 132.4,-21.77 132.81,-14.78"/>
<text text-anchor="middle" x="146.5" y="-18.3" font-family="Times,serif" font-size="14.00">&#39;a&#39;</text>
</g>
<!-- 1&#45;&gt;1 -->
<g id="edge6" class="edge">
<title>1&#45;&gt;1</title>
<path fill="none" stroke="black" d="M121.27,-29.9C140.44,-32.05 159,-29.41 159,-22 159,-15.92 146.51,-13.05 131.44,-13.4"/>
<polygon fill="black" stroke="black" points="131.01,-9.92 121.27,-14.1 131.49,-16.91 131.01,-9.92"/>
<text text-anchor="middle" x="165" y="-18.3" font-family="Times,serif" font-size="14.00">&#39;b&#39;</text>
</g>
<!-- 2 -->
<g id="node3" class="node">
<title>2</title>
<ellipse fill="none" stroke="black" cx="119" cy="-200" rx="27" ry="18"/>
<text text-anchor="middle" x="119" y="-196.3" font-family="Times,serif" font-size="14.00">2</text>
</g>
<!-- 2&#45;&gt;0 -->
<g id="edge7" class="edge">
<title>2&#45;&gt;0</title>
<path fill="none" stroke="black" d="M103.81,-184.96C89.16,-171.43 66.8,-150.77 49.97,-135.22"/>
<polygon fill="black" stroke="black" points="51.93,-132.27 42.21,-128.06 47.18,-137.41 51.93,-132.27"/>
<text text-anchor="middle" x="84.5" y="-152.8" font-family="Times,serif" font-size="14.00">&#39;a&#39;</text>
</g>
<!-- 2&#45;&gt;1 -->
<g id="edge8" class="edge">
<title>2&#45;&gt;1</title>
<path fill="none" stroke="black" d="M116.36,-181.8C111.83,-152.28 102.52,-91.55 96.81,-54.34"/>
<polygon fill="black" stroke="black" points="100.21,-53.41 95.23,-44.06 93.29,-54.47 100.21,-53.41"/>
<text text-anchor="middle" x="114.5" y="-109.3" font-family="Times,serif" font-size="14.00">&#39;a&#39;</text>
</g>
<!-- 2&#45;&gt;1 -->
<g id="edge9" class="edge">
<title>2&#45;&gt;1</title>
<path fill="none" stroke="black" d="M123.68,-182.04C125.04,-176.35 126.33,-169.95 127,-164 132.12,-118.59 131.96,-104.02 114,-62 112.51,-58.51 110.78,-54.93 108.97,-51.42"/>
<polygon fill="black" stroke="black" points="111.92,-49.52 104.06,-42.41 105.77,-52.87 111.92,-49.52"/>
<text text-anchor="middle" x="135" y="-109.3" font-family="Times,serif" font-size="14.00">&#39;b&#39;</text>
</g>
<!-- s -->
<!-- s&#45;&gt;2 -->
<g id="edge10" class="edge">
<title>s&#45;&gt;2</title>
<path fill="none" stroke="black" d="M119,-254.81C119,-246.79 119,-237.05 119,-228.07"/>
<polygon fill="black" stroke="black" points="122.5,-228.03 119,-218.03 115.5,-228.03 122.5,-228.03"/>
</g>
</g>
</svg>
