<?xml version="1.0" encoding="UTF-8" standalone="no"?>
<!DOCTYPE svg PUBLIC "-//W3C//DTD SVG 1.1//EN"
 "http://www.w3.org/Graphics/SVG/1.1/DTD/svg11.dtd">
<!-- Generated by graphviz version 2.46.0 (20210118.1747)
 -->
<!-- Title: G Pages: 1 -->
<svg width="267pt" height="220pt"
 viewBox="0.00 0.00 266.88 220.00" xmlns="http://www.w3.org/2000/svg" xmlns:xlink="http://www.w3.org/1999/xlink">
<g id="graph0" class="graph" transform="scale(1 1) rotate(0) translate(4 216)">
<title>G</title>
<polygon fill="white" stroke="transparent" points="-4,4 -4,-216 262.88,-216 262.88,4 -4,4"/>
<!-- 0 -->
<g id="node1" class="node">
<title>0</title>
<ellipse fill="none" stroke="black" cx="76.88" cy="-117" rx="27" ry="18"/>
<ellipse fill="none" stroke="black" cx="76.88" cy="-117" rx="31" ry="22"/>
<text text-anchor="middle" x="76.88" y="-113.3" font-family="Times,serif" font-size="14.00">0</text>
</g>
<!-- 2 -->
<g id="node2" class="node">
<title>2</title>
<ellipse fill="none" stroke="black" cx="163.88" cy="-22" rx="27" ry="18"/>
<ellipse fill="none" stroke="black" cx="163.88" cy="-22" rx="31" ry="22"/>
<text text-anchor="middle" x="163.88" y="-18.3" font-family="Times,serif" font-size="14.00">2</text>
</g>
<!-- 0&#45;&gt;2 -->
<g id="edge1" class="edge">
<title>0&#45;&gt;2</title>
<path fill="none" stroke="black" d="M99.79,-101.94C109.73,-95.16 121.09,-86.45 129.88,-77 136.88,-69.47 143.27,-60.31 148.58,-51.69"/>
<polygon fill="black" stroke="black" points="151.64,-53.38 153.69,-42.98 145.61,-49.83 151.64,-53.38"/>
<text text-anchor="middle" x="153.88" y="-65.8" font-family="Times,serif" font-size="14.00">&#39;a&#39;:&#39;x&#39;</text>
</g>
<!-- 1 -->
<g id="node3" class="node">
<title>1</title>
<ellipse fill="none" stroke="black" cx="39.88" cy="-22" rx="27" ry="18"/>
<ellipse fill="none" stroke="black" cx="39.88" cy="-22" rx="31" ry="22"/>
<text text-anchor="middle" x="39.88" y="-18.3" font-family="Times,serif" font-size="14.00">1</text>
</g>
<!-- 0&#45;&gt;1 -->
<g id="edge2" class="edge">
<title>0&#45;&gt;1</title>
<path fill="none" stroke="black" d="M47.84,-108.7C31.56,-102.97 12.63,-93.16 2.88,-77 -3.62,-66.22 2.43,-54.66 11.39,-45.01"/>
<polygon fill="black" stroke="black" points="13.85,-47.5 18.65,-38.05 9.01,-42.45 13.85,-47.5"/>
<text text-anchor="middle" x="16.38" y="-65.8" font-family="Times,serif" font-size="14.00">&#39;b&#39;:&#39;y&#39;</text>
</g>
<!-- 2&#45;&gt;0 -->
<g id="edge6" class="edge">
<title>2&#45;&gt;0</title>
<path fill="none" stroke="black" d="M139.29,-35.64C123.49,-44.15 104.83,-55.06 98.88,-62 93.06,-68.79 88.63,-77.34 85.33,-85.61"/>
<polygon fill="black" stroke="black" points="82.02,-84.48 81.96,-95.07 88.62,-86.83 82.02,-84.48"/>
<text text-anchor="middle" x="112.38" y="-65.8" font-family="Times,serif" font-size="14.00">&#39;b&#39;:&#39;x&#39;</text>
</g>
<!-- 2&#45;&gt;2 -->
<g id="edge5" class="edge">
<title>2&#45;&gt;2</title>
<path fill="none" stroke="black" d="M192.57,-30.59C203.66,-30.97 212.88,-28.11 212.88,-22 212.88,-17.9 208.72,-15.26 202.62,-14.08"/>
<polygon fill="black" stroke="black" points="202.78,-10.58 192.57,-13.41 202.31,-17.57 202.78,-10.58"/>
<text text-anchor="middle" x="225.88" y="-18.3" font-family="Times,serif" font-size="14.00">&#39;a&#39;:&#39;x&#39;</text>
</g>
<!-- 1&#45;&gt;0 -->
<g id="edge4" class="edge">
<title>1&#45;&gt;0</title>
<path fill="none" stroke="black" d="M43.33,-44C45.41,-54.2 48.51,-66.49 52.88,-77 54.42,-80.69 56.28,-84.44 58.27,-88.08"/>
<polygon fill="black" stroke="black" points="55.32,-89.96 63.41,-96.81 61.35,-86.41 55.32,-89.96"/>
<text text-anchor="middle" x="66.38" y="-65.8" font-family="Times,serif" font-size="14.00">&#39;b&#39;:&#39;y&#39;</text>
</g>
<!-- 1&#45;&gt;1 -->
<g id="edge3" class="edge">
<title>1&#45;&gt;1</title>
<path fill="none" stroke="black" d="M68.57,-30.59C79.66,-30.97 88.88,-28.11 88.88,-22 88.88,-17.9 84.72,-15.26 78.62,-14.08"/>
<polygon fill="black" stroke="black" points="78.78,-10.58 68.57,-13.41 78.31,-17.57 78.78,-10.58"/>
<text text-anchor="middle" x="101.88" y="-18.3" font-family="Times,serif" font-size="14.00">&#39;a&#39;:&#39;y&#39;</text>
</g>
<!-- 3 -->
<g id="node4" class="node">
<title>3</title>
<ellipse fill="none" stroke="black" cx="225.88" cy="-117" rx="27" ry="18"/>
<ellipse fill="none" stroke="black" cx="225.88" cy="-117" rx="31" ry="22"/>
<text text-anchor="middle" x="225.88" y="-113.3" font-family="Times,serif" font-size="14.00">3</text>
</g>
<!-- 3&#45;&gt;2 -->
<g id="edge7" class="edge">
<title>3&#45;&gt;2</title>
<path fill="none" stroke="black" d="M232.13,-95.3C234.11,-84.7 234.53,-71.97 228.88,-62 222.6,-50.91 211.76,-42.62 200.72,-36.61"/>
<polygon fill="black" stroke="black" points="202.01,-33.35 191.49,-32.09 198.93,-39.63 202.01,-33.35"/>
<text text-anchor="middle" x="245.88" y="-65.8" font-family="Times,serif" font-size="14.00">&#39;a&#39;:&#39;x&#39;</text>
</g>
<!-- 3&#45;&gt;1 -->
<g id="edge8" class="edge">
<title>3&#45;&gt;1</title>
<path fill="none" stroke="black" d="M211.06,-97.36C200.89,-85.69 186.44,-71.18 170.88,-62 155.23,-52.77 111.42,-40.62 78.74,-32.36"/>
<polygon fill="black" stroke="black" points="79.55,-28.95 69,-29.92 77.86,-35.74 79.55,-28.95"/>
<text text-anchor="middle" x="202.38" y="-65.8" font-family="Times,serif" font-size="14.00">&#39;b&#39;:&#39;y&#39;</text>
</g>
<!-- s -->
<!-- s&#45;&gt;3 -->
<g id="edge9" class="edge">
<title>s&#45;&gt;3</title>
<path fill="none" stroke="black" d="M225.88,-175.98C225.88,-168.15 225.88,-158.61 225.88,-149.54"/>
<polygon fill="black" stroke="black" points="229.38,-149.24 225.88,-139.24 222.38,-149.24 229.38,-149.24"/>
</g>
</g>
</svg>
