<?xml version="1.0" encoding="UTF-8" standalone="no"?>
<!DOCTYPE svg PUBLIC "-//W3C//DTD SVG 1.1//EN"
 "http://www.w3.org/Graphics/SVG/1.1/DTD/svg11.dtd">
<!-- Generated by graphviz version 2.46.0 (20210118.1747)
 -->
<!-- Title: G Pages: 1 -->
<svg width="208pt" height="315pt"
 viewBox="0.00 0.00 208.00 315.00" xmlns="http://www.w3.org/2000/svg" xmlns:xlink="http://www.w3.org/1999/xlink">
<g id="graph0" class="graph" transform="scale(1 1) rotate(0) translate(4 311)">
<title>G</title>
<polygon fill="white" stroke="transparent" points="-4,4 -4,-311 204,-311 204,4 -4,4"/>
<!-- 0 -->
<g id="node1" class="node">
<title>0</title>
<ellipse fill="none" stroke="black" cx="80" cy="-22" rx="27" ry="18"/>
<ellipse fill="none" stroke="black" cx="80" cy="-22" rx="31" ry="22"/>
<text text-anchor="middle" x="80" y="-18.3" font-family="Times,serif" font-size="14.00">0</text>
</g>
<!-- 0&#45;&gt;0 -->
<g id="edge1" class="edge">
<title>0&#45;&gt;0</title>
<path fill="none" stroke="black" d="M110.62,-26.31C120.83,-26.31 129,-24.88 129,-22 129,-20.2 125.81,-18.97 120.93,-18.29"/>
<polygon fill="black" stroke="black" points="120.81,-14.78 110.62,-17.69 120.4,-21.77 120.81,-14.78"/>
<text text-anchor="middle" x="142" y="-18.3" font-family="Times,serif" font-size="14.00">&#39;a&#39;:&#39;x&#39;</text>
</g>
<!-- 0&#45;&gt;0 -->
<g id="edge2" class="edge">
<title>0&#45;&gt;0</title>
<path fill="none" stroke="black" d="M109.24,-29.65C131.5,-32.23 155,-29.68 155,-22 155,-15.49 138.12,-12.66 119.41,-13.53"/>
<polygon fill="black" stroke="black" points="118.93,-10.05 109.24,-14.35 119.49,-17.03 118.93,-10.05"/>
<text text-anchor="middle" x="168.5" y="-18.3" font-family="Times,serif" font-size="14.00">&#39;b&#39;:&#39;y&#39;</text>
</g>
<!-- 1 -->
<g id="node2" class="node">
<title>1</title>
<ellipse fill="none" stroke="black" cx="31" cy="-212" rx="27" ry="18"/>
<ellipse fill="none" stroke="black" cx="31" cy="-212" rx="31" ry="22"/>
<text text-anchor="middle" x="31" y="-208.3" font-family="Times,serif" font-size="14.00">1</text>
</g>
<!-- 1&#45;&gt;0 -->
<g id="edge4" class="edge">
<title>1&#45;&gt;0</title>
<path fill="none" stroke="black" d="M21.64,-190.6C12.14,-166.86 0.47,-126.86 13,-95 20.75,-75.29 36.72,-57.78 51.12,-44.96"/>
<polygon fill="black" stroke="black" points="53.56,-47.49 58.9,-38.34 49.02,-42.16 53.56,-47.49"/>
<text text-anchor="middle" x="26.5" y="-113.3" font-family="Times,serif" font-size="14.00">&#39;b&#39;:&#39;y&#39;</text>
</g>
<!-- 2 -->
<g id="node3" class="node">
<title>2</title>
<ellipse fill="none" stroke="black" cx="80" cy="-117" rx="27" ry="18"/>
<ellipse fill="none" stroke="black" cx="80" cy="-117" rx="31" ry="22"/>
<text text-anchor="middle" x="80" y="-113.3" font-family="Times,serif" font-size="14.00">2</text>
</g>
<!-- 1&#45;&gt;2 -->
<g id="edge3" class="edge">
<title>1&#45;&gt;2</title>
<path fill="none" stroke="black" d="M27.37,-190.04C26.54,-179.61 27.07,-167.11 32,-157 35.64,-149.53 41.46,-143.02 47.81,-137.56"/>
<polygon fill="black" stroke="black" points="50.24,-140.11 56.02,-131.23 45.97,-134.57 50.24,-140.11"/>
<text text-anchor="middle" x="45" y="-160.8" font-family="Times,serif" font-size="14.00">&#39;a&#39;:&#39;x&#39;</text>
</g>
<!-- 2&#45;&gt;0 -->
<g id="edge5" class="edge">
<title>2&#45;&gt;0</title>
<path fill="none" stroke="black" d="M80,-94.9C80,-82.89 80,-67.62 80,-54.24"/>
<polygon fill="black" stroke="black" points="83.5,-54.02 80,-44.02 76.5,-54.02 83.5,-54.02"/>
<text text-anchor="middle" x="93" y="-65.8" font-family="Times,serif" font-size="14.00">&#39;a&#39;:&#39;x&#39;</text>
</g>
<!-- 2&#45;&gt;1 -->
<g id="edge6" class="edge">
<title>2&#45;&gt;1</title>
<path fill="none" stroke="black" d="M72.87,-138.48C68.98,-148.78 63.78,-161.32 58,-172 55.93,-175.83 53.56,-179.74 51.1,-183.54"/>
<polygon fill="black" stroke="black" points="48.02,-181.85 45.32,-192.09 53.82,-185.76 48.02,-181.85"/>
<text text-anchor="middle" x="79.5" y="-160.8" font-family="Times,serif" font-size="14.00">&#39;b&#39;:&#39;x&#39;</text>
</g>
<!-- 3 -->
<g id="node4" class="node">
<title>3</title>
<ellipse fill="none" stroke="black" cx="150" cy="-212" rx="27" ry="18"/>
<ellipse fill="none" stroke="black" cx="150" cy="-212" rx="31" ry="22"/>
<text text-anchor="middle" x="150" y="-208.3" font-family="Times,serif" font-size="14.00">3</text>
</g>
<!-- 3&#45;&gt;0 -->
<g id="edge8" class="edge">
<title>3&#45;&gt;0</title>
<path fill="none" stroke="black" d="M151.41,-189.77C151.62,-179.74 151.2,-167.65 149,-157 139.75,-112.31 132.78,-101.55 110,-62 107.57,-57.78 104.73,-53.51 101.79,-49.41"/>
<polygon fill="black" stroke="black" points="104.52,-47.22 95.71,-41.33 98.93,-51.43 104.52,-47.22"/>
<text text-anchor="middle" x="157.5" y="-113.3" font-family="Times,serif" font-size="14.00">&#39;b&#39;:&#39;y&#39;</text>
</g>
<!-- 3&#45;&gt;2 -->
<g id="edge7" class="edge">
<title>3&#45;&gt;2</title>
<path fill="none" stroke="black" d="M135.83,-192.18C125.59,-178.57 111.59,-159.98 100.18,-144.81"/>
<polygon fill="black" stroke="black" points="102.95,-142.68 94.14,-136.79 97.36,-146.89 102.95,-142.68"/>
<text text-anchor="middle" x="132" y="-160.8" font-family="Times,serif" font-size="14.00">&#39;a&#39;:&#39;x&#39;</text>
</g>
<!-- s -->
<!-- s&#45;&gt;3 -->
<g id="edge9" class="edge">
<title>s&#45;&gt;3</title>
<path fill="none" stroke="black" d="M150,-270.98C150,-263.15 150,-253.61 150,-244.54"/>
<polygon fill="black" stroke="black" points="153.5,-244.24 150,-234.24 146.5,-244.24 153.5,-244.24"/>
</g>
</g>
</svg>
