<?xml version="1.0" encoding="UTF-8" standalone="no"?>
<!DOCTYPE svg PUBLIC "-//W3C//DTD SVG 1.1//EN"
 "http://www.w3.org/Graphics/SVG/1.1/DTD/svg11.dtd">
<!-- Generated by graphviz version 2.46.0 (20210118.1747)
 -->
<!-- Title: G Pages: 1 -->
<svg width="200pt" height="299pt"
 viewBox="0.00 0.00 200.00 299.00" xmlns="http://www.w3.org/2000/svg" xmlns:xlink="http://www.w3.org/1999/xlink">
<g id="graph0" class="graph" transform="scale(1 1) rotate(0) translate(4 295)">
<title>G</title>
<polygon fill="white" stroke="transparent" points="-4,4 -4,-295 196,-295 196,4 -4,4"/>
<!-- 0 -->
<g id="node1" class="node">
<title>0</title>
<ellipse fill="none" stroke="black" cx="76" cy="-18" rx="27" ry="18"/>
<text text-anchor="middle" x="76" y="-14.3" font-family="Times,serif" font-size="14.00">0</text>
</g>
<!-- 0&#45;&gt;0 -->
<g id="edge1" class="edge">
<title>0&#45;&gt;0</title>
<path fill="none" stroke="black" d="M102.79,-21.93C112.78,-22.06 121,-20.75 121,-18 121,-16.28 117.79,-15.13 112.94,-14.53"/>
<polygon fill="black" stroke="black" points="112.94,-11.03 102.79,-14.07 112.63,-18.02 112.94,-11.03"/>
<text text-anchor="middle" x="134" y="-14.3" font-family="Times,serif" font-size="14.00">&#39;a&#39;:&#39;x&#39;</text>
</g>
<!-- 0&#45;&gt;0 -->
<g id="edge2" class="edge">
<title>0&#45;&gt;0</title>
<path fill="none" stroke="black" d="M101.4,-24.72C123.1,-27.5 147,-25.26 147,-18 147,-11.85 129.83,-9.3 111.38,-10.36"/>
<polygon fill="black" stroke="black" points="111.04,-6.87 101.4,-11.28 111.68,-13.85 111.04,-6.87"/>
<text text-anchor="middle" x="160.5" y="-14.3" font-family="Times,serif" font-size="14.00">&#39;b&#39;:&#39;y&#39;</text>
</g>
<!-- 1 -->
<g id="node2" class="node">
<title>1</title>
<ellipse fill="none" stroke="black" cx="27" cy="-200" rx="27" ry="18"/>
<text text-anchor="middle" x="27" y="-196.3" font-family="Times,serif" font-size="14.00">1</text>
</g>
<!-- 1&#45;&gt;0 -->
<g id="edge4" class="edge">
<title>1&#45;&gt;0</title>
<path fill="none" stroke="black" d="M18.97,-182.42C9.29,-159.98 -4.15,-119.07 9,-87 17.22,-66.94 34.53,-49.63 49.49,-37.5"/>
<polygon fill="black" stroke="black" points="51.73,-40.19 57.49,-31.3 47.44,-34.66 51.73,-40.19"/>
<text text-anchor="middle" x="22.5" y="-105.3" font-family="Times,serif" font-size="14.00">&#39;b&#39;:&#39;y&#39;</text>
</g>
<!-- 3 -->
<g id="node3" class="node">
<title>3</title>
<ellipse fill="none" stroke="black" cx="76" cy="-109" rx="27" ry="18"/>
<ellipse fill="none" stroke="black" cx="76" cy="-109" rx="31" ry="22"/>
<text text-anchor="middle" x="76" y="-105.3" font-family="Times,serif" font-size="14.00">3</text>
</g>
<!-- 1&#45;&gt;3 -->
<g id="edge3" class="edge">
<title>1&#45;&gt;3</title>
<path fill="none" stroke="black" d="M23.89,-181.96C22.87,-171.88 23.05,-159.14 28,-149 31.64,-141.54 37.47,-135.02 43.82,-129.57"/>
<polygon fill="black" stroke="black" points="46.25,-132.11 52.03,-123.23 41.97,-126.57 46.25,-132.11"/>
<text text-anchor="middle" x="41" y="-152.8" font-family="Times,serif" font-size="14.00">&#39;a&#39;:&#39;x&#39;</text>
</g>
<!-- 3&#45;&gt;0 -->
<g id="edge7" class="edge">
<title>3&#45;&gt;0</title>
<path fill="none" stroke="black" d="M76,-86.91C76,-74.78 76,-59.41 76,-46.36"/>
<polygon fill="black" stroke="black" points="79.5,-46.07 76,-36.07 72.5,-46.07 79.5,-46.07"/>
<text text-anchor="middle" x="89" y="-57.8" font-family="Times,serif" font-size="14.00">&#39;a&#39;:&#39;x&#39;</text>
</g>
<!-- 3&#45;&gt;1 -->
<g id="edge8" class="edge">
<title>3&#45;&gt;1</title>
<path fill="none" stroke="black" d="M69.1,-130.61C65.27,-140.95 60.06,-153.47 54,-164 51.7,-168 48.99,-172.05 46.19,-175.91"/>
<polygon fill="black" stroke="black" points="43.34,-173.88 40.04,-183.95 48.9,-178.13 43.34,-173.88"/>
<text text-anchor="middle" x="75.5" y="-152.8" font-family="Times,serif" font-size="14.00">&#39;b&#39;:&#39;x&#39;</text>
</g>
<!-- 2 -->
<g id="node4" class="node">
<title>2</title>
<ellipse fill="none" stroke="black" cx="146" cy="-200" rx="27" ry="18"/>
<text text-anchor="middle" x="146" y="-196.3" font-family="Times,serif" font-size="14.00">2</text>
</g>
<!-- 2&#45;&gt;0 -->
<g id="edge6" class="edge">
<title>2&#45;&gt;0</title>
<path fill="none" stroke="black" d="M148.22,-181.7C149.01,-171.99 149.21,-159.71 147,-149 137.7,-103.96 130.35,-93.01 106,-54 103.33,-49.73 100.16,-45.44 96.9,-41.4"/>
<polygon fill="black" stroke="black" points="99.36,-38.89 90.2,-33.56 94.03,-43.43 99.36,-38.89"/>
<text text-anchor="middle" x="155.5" y="-105.3" font-family="Times,serif" font-size="14.00">&#39;b&#39;:&#39;y&#39;</text>
</g>
<!-- 2&#45;&gt;3 -->
<g id="edge5" class="edge">
<title>2&#45;&gt;3</title>
<path fill="none" stroke="black" d="M133.81,-183.5C123.69,-170.64 109.08,-152.06 97.08,-136.8"/>
<polygon fill="black" stroke="black" points="99.66,-134.41 90.72,-128.72 94.15,-138.74 99.66,-134.41"/>
<text text-anchor="middle" x="130" y="-152.8" font-family="Times,serif" font-size="14.00">&#39;a&#39;:&#39;x&#39;</text>
</g>
<!-- s -->
<!-- s&#45;&gt;2 -->
<g id="edge9" class="edge">
<title>s&#45;&gt;2</title>
<path fill="none" stroke="black" d="M146,-254.81C146,-246.79 146,-237.05 146,-228.07"/>
<polygon fill="black" stroke="black" points="149.5,-228.03 146,-218.03 142.5,-228.03 149.5,-228.03"/>
</g>
</g>
</svg>
