<?xml version="1.0" encoding="UTF-8" standalone="no"?>
<!DOCTYPE svg PUBLIC "-//W3C//DTD SVG 1.1//EN"
 "http://www.w3.org/Graphics/SVG/1.1/DTD/svg11.dtd">
<!-- Generated by graphviz version 2.46.0 (20210118.1747)
 -->
<!-- Title: G Pages: 1 -->
<svg width="171pt" height="386pt"
 viewBox="0.00 0.00 171.00 386.00" xmlns="http://www.w3.org/2000/svg" xmlns:xlink="http://www.w3.org/1999/xlink">
<g id="graph0" class="graph" transform="scale(1 1) rotate(0) translate(4 382)">
<title>G</title>
<polygon fill="white" stroke="transparent" points="-4,4 -4,-382 167,-382 167,4 -4,4"/>
<!-- 0 -->
<g id="node1" class="node">
<title>0</title>
<ellipse fill="none" stroke="black" cx="31" cy="-196" rx="27" ry="18"/>
<ellipse fill="none" stroke="black" cx="31" cy="-196" rx="31" ry="22"/>
<text text-anchor="middle" x="31" y="-192.3" font-family="Times,serif" font-size="14.00">0</text>
</g>
<!-- 0&#45;&gt;0 -->
<g id="edge1" class="edge">
<title>0&#45;&gt;0</title>
<path fill="none" stroke="black" d="M59.69,-204.59C70.78,-204.97 80,-202.11 80,-196 80,-191.9 75.84,-189.26 69.74,-188.08"/>
<polygon fill="black" stroke="black" points="69.9,-184.58 59.69,-187.41 69.43,-191.57 69.9,-184.58"/>
<text text-anchor="middle" x="93" y="-192.3" font-family="Times,serif" font-size="14.00">&#39;a&#39;:&#39;x&#39;</text>
</g>
<!-- 1 -->
<g id="node2" class="node">
<title>1</title>
<ellipse fill="none" stroke="black" cx="52" cy="-105" rx="27" ry="18"/>
<text text-anchor="middle" x="52" y="-101.3" font-family="Times,serif" font-size="14.00">1</text>
</g>
<!-- 0&#45;&gt;1 -->
<g id="edge2" class="edge">
<title>0&#45;&gt;1</title>
<path fill="none" stroke="black" d="M17.73,-175.91C12.14,-165.42 7.97,-152.28 13,-141 15.72,-134.89 20.1,-129.41 24.95,-124.69"/>
<polygon fill="black" stroke="black" points="27.51,-127.11 32.8,-117.93 22.94,-121.8 27.51,-127.11"/>
<text text-anchor="middle" x="26.5" y="-144.8" font-family="Times,serif" font-size="14.00">&#39;b&#39;:&#39;x&#39;</text>
</g>
<!-- 1&#45;&gt;0 -->
<g id="edge3" class="edge">
<title>1&#45;&gt;0</title>
<path fill="none" stroke="black" d="M47.97,-123.07C45.25,-134.61 41.58,-150.18 38.34,-163.89"/>
<polygon fill="black" stroke="black" points="34.87,-163.37 35.98,-173.91 41.68,-164.98 34.87,-163.37"/>
<text text-anchor="middle" x="57" y="-144.8" font-family="Times,serif" font-size="14.00">&#39;a&#39;:&#39;x&#39;</text>
</g>
<!-- 3 -->
<g id="node3" class="node">
<title>3</title>
<ellipse fill="none" stroke="black" cx="92" cy="-18" rx="27" ry="18"/>
<text text-anchor="middle" x="92" y="-14.3" font-family="Times,serif" font-size="14.00">3</text>
</g>
<!-- 1&#45;&gt;3 -->
<g id="edge4" class="edge">
<title>1&#45;&gt;3</title>
<path fill="none" stroke="black" d="M43.96,-87.46C40.23,-77.32 37.67,-64.35 43,-54 47.13,-45.98 54.03,-39.39 61.38,-34.18"/>
<polygon fill="black" stroke="black" points="63.48,-36.99 70.07,-28.69 59.74,-31.08 63.48,-36.99"/>
<text text-anchor="middle" x="56.5" y="-57.8" font-family="Times,serif" font-size="14.00">&#39;b&#39;:&#39;y&#39;</text>
</g>
<!-- 3&#45;&gt;1 -->
<g id="edge8" class="edge">
<title>3&#45;&gt;1</title>
<path fill="none" stroke="black" d="M84.92,-35.78C80.72,-45.54 75.22,-58.04 70,-69 68.48,-72.18 66.85,-75.5 65.2,-78.77"/>
<polygon fill="black" stroke="black" points="62.06,-77.22 60.63,-87.72 68.3,-80.41 62.06,-77.22"/>
<text text-anchor="middle" x="89.5" y="-57.8" font-family="Times,serif" font-size="14.00">&#39;b&#39;:&#39;y&#39;</text>
</g>
<!-- 3&#45;&gt;3 -->
<g id="edge7" class="edge">
<title>3&#45;&gt;3</title>
<path fill="none" stroke="black" d="M116.53,-25.75C127.51,-26.49 137,-23.91 137,-18 137,-14.03 132.72,-11.56 126.57,-10.59"/>
<polygon fill="black" stroke="black" points="126.65,-7.09 116.53,-10.25 126.41,-14.09 126.65,-7.09"/>
<text text-anchor="middle" x="150" y="-14.3" font-family="Times,serif" font-size="14.00">&#39;a&#39;:&#39;y&#39;</text>
</g>
<!-- 2 -->
<g id="node4" class="node">
<title>2</title>
<ellipse fill="none" stroke="black" cx="82" cy="-287" rx="27" ry="18"/>
<text text-anchor="middle" x="82" y="-283.3" font-family="Times,serif" font-size="14.00">2</text>
</g>
<!-- 2&#45;&gt;0 -->
<g id="edge5" class="edge">
<title>2&#45;&gt;0</title>
<path fill="none" stroke="black" d="M72.65,-269.68C65.55,-257.29 55.62,-239.96 47.23,-225.33"/>
<polygon fill="black" stroke="black" points="50.26,-223.57 42.25,-216.64 44.19,-227.05 50.26,-223.57"/>
<text text-anchor="middle" x="74" y="-239.8" font-family="Times,serif" font-size="14.00">&#39;a&#39;:&#39;x&#39;</text>
</g>
<!-- 2&#45;&gt;3 -->
<g id="edge6" class="edge">
<title>2&#45;&gt;3</title>
<path fill="none" stroke="black" d="M92.18,-270.28C100.16,-256.96 110.62,-237.06 115,-218 122.6,-184.95 115.79,-90.61 107,-54 106.27,-50.95 105.29,-47.83 104.19,-44.76"/>
<polygon fill="black" stroke="black" points="107.36,-43.29 100.36,-35.34 100.88,-45.92 107.36,-43.29"/>
<text text-anchor="middle" x="130.5" y="-144.8" font-family="Times,serif" font-size="14.00">&#39;b&#39;:&#39;y&#39;</text>
</g>
<!-- s -->
<!-- s&#45;&gt;2 -->
<g id="edge9" class="edge">
<title>s&#45;&gt;2</title>
<path fill="none" stroke="black" d="M82,-341.81C82,-333.79 82,-324.05 82,-315.07"/>
<polygon fill="black" stroke="black" points="85.5,-315.03 82,-305.03 78.5,-315.03 85.5,-315.03"/>
</g>
</g>
</svg>
