<?xml version="1.0" encoding="UTF-8" standalone="no"?>
<!DOCTYPE svg PUBLIC "-//W3C//DTD SVG 1.1//EN"
 "http://www.w3.org/Graphics/SVG/1.1/DTD/svg11.dtd">
<!-- Generated by graphviz version 2.46.0 (20210118.1747)
 -->
<!-- Title: G Pages: 1 -->
<svg width="185pt" height="386pt"
 viewBox="0.00 0.00 185.00 386.00" xmlns="http://www.w3.org/2000/svg" xmlns:xlink="http://www.w3.org/1999/xlink">
<g id="graph0" class="graph" transform="scale(1 1) rotate(0) translate(4 382)">
<title>G</title>
<polygon fill="white" stroke="transparent" points="-4,4 -4,-382 181,-382 181,4 -4,4"/>
<!-- 0 -->
<g id="node1" class="node">
<title>0</title>
<ellipse fill="none" stroke="black" cx="90" cy="-287" rx="27" ry="18"/>
<text text-anchor="middle" x="90" y="-283.3" font-family="Times,serif" font-size="14.00">0</text>
</g>
<!-- 1 -->
<g id="node2" class="node">
<title>1</title>
<ellipse fill="none" stroke="black" cx="31" cy="-196" rx="27" ry="18"/>
<ellipse fill="none" stroke="black" cx="31" cy="-196" rx="31" ry="22"/>
<text text-anchor="middle" x="31" y="-192.3" font-family="Times,serif" font-size="14.00">1</text>
</g>
<!-- 0&#45;&gt;1 -->
<g id="edge1" class="edge">
<title>0&#45;&gt;1</title>
<path fill="none" stroke="black" d="M79.45,-270.09C71.08,-257.47 59.19,-239.52 49.28,-224.57"/>
<polygon fill="black" stroke="black" points="52.16,-222.58 43.71,-216.18 46.32,-226.45 52.16,-222.58"/>
<text text-anchor="middle" x="75.5" y="-239.8" font-family="Times,serif" font-size="14.00">&#39;a&#39;:&#39;&#39;</text>
</g>
<!-- 3 -->
<g id="node3" class="node">
<title>3</title>
<ellipse fill="none" stroke="black" cx="113" cy="-18" rx="27" ry="18"/>
<text text-anchor="middle" x="113" y="-14.3" font-family="Times,serif" font-size="14.00">3</text>
</g>
<!-- 0&#45;&gt;3 -->
<g id="edge2" class="edge">
<title>0&#45;&gt;3</title>
<path fill="none" stroke="black" d="M102.01,-270.56C111.42,-257.42 123.78,-237.59 129,-218 144.99,-158 130.76,-84.52 120.78,-45.81"/>
<polygon fill="black" stroke="black" points="124.08,-44.6 118.11,-35.85 117.32,-46.42 124.08,-44.6"/>
<text text-anchor="middle" x="153" y="-144.8" font-family="Times,serif" font-size="14.00">&#39;b&#39;:&#39;yx&#39;</text>
</g>
<!-- 1&#45;&gt;1 -->
<g id="edge3" class="edge">
<title>1&#45;&gt;1</title>
<path fill="none" stroke="black" d="M59.69,-204.59C70.78,-204.97 80,-202.11 80,-196 80,-191.9 75.84,-189.26 69.74,-188.08"/>
<polygon fill="black" stroke="black" points="69.9,-184.58 59.69,-187.41 69.43,-191.57 69.9,-184.58"/>
<text text-anchor="middle" x="100" y="-192.3" font-family="Times,serif" font-size="14.00">&#39;a&#39;:&#39;xxx&#39;</text>
</g>
<!-- 2 -->
<g id="node4" class="node">
<title>2</title>
<ellipse fill="none" stroke="black" cx="64" cy="-105" rx="27" ry="18"/>
<text text-anchor="middle" x="64" y="-101.3" font-family="Times,serif" font-size="14.00">2</text>
</g>
<!-- 1&#45;&gt;2 -->
<g id="edge4" class="edge">
<title>1&#45;&gt;2</title>
<path fill="none" stroke="black" d="M18.91,-175.57C13.93,-164.97 10.49,-151.84 16,-141 20,-133.14 26.68,-126.62 33.81,-121.43"/>
<polygon fill="black" stroke="black" points="35.78,-124.33 42.25,-115.94 31.96,-118.46 35.78,-124.33"/>
<text text-anchor="middle" x="33" y="-144.8" font-family="Times,serif" font-size="14.00">&#39;b&#39;:&#39;yx&#39;</text>
</g>
<!-- 3&#45;&gt;3 -->
<g id="edge7" class="edge">
<title>3&#45;&gt;3</title>
<path fill="none" stroke="black" d="M137.53,-25.75C148.51,-26.49 158,-23.91 158,-18 158,-14.03 153.72,-11.56 147.57,-10.59"/>
<polygon fill="black" stroke="black" points="147.65,-7.09 137.53,-10.25 147.41,-14.09 147.65,-7.09"/>
<text text-anchor="middle" x="167.5" y="-14.3" font-family="Times,serif" font-size="14.00">&#39;a&#39;:&#39;&#39;</text>
</g>
<!-- 3&#45;&gt;2 -->
<g id="edge8" class="edge">
<title>3&#45;&gt;2</title>
<path fill="none" stroke="black" d="M106.83,-35.71C102.87,-45.67 97.29,-58.4 91,-69 88.64,-72.97 85.91,-77 83.09,-80.85"/>
<polygon fill="black" stroke="black" points="80.24,-78.83 76.94,-88.89 85.8,-83.08 80.24,-78.83"/>
<text text-anchor="middle" x="108" y="-57.8" font-family="Times,serif" font-size="14.00">&#39;b&#39;:&#39;&#39;</text>
</g>
<!-- 2&#45;&gt;1 -->
<g id="edge5" class="edge">
<title>2&#45;&gt;1</title>
<path fill="none" stroke="black" d="M60.07,-122.91C57.6,-132.71 54.1,-145.21 50,-156 48.76,-159.27 47.34,-162.63 45.86,-165.95"/>
<polygon fill="black" stroke="black" points="42.66,-164.53 41.57,-175.06 48.99,-167.51 42.66,-164.53"/>
<text text-anchor="middle" x="65.5" y="-144.8" font-family="Times,serif" font-size="14.00">&#39;a&#39;:&#39;&#39;</text>
</g>
<!-- 2&#45;&gt;3 -->
<g id="edge6" class="edge">
<title>2&#45;&gt;3</title>
<path fill="none" stroke="black" d="M56.72,-87.29C53.43,-77.1 51.39,-64.12 57,-54 62.21,-44.6 71.11,-37.39 80.31,-32.03"/>
<polygon fill="black" stroke="black" points="82.21,-34.98 89.47,-27.27 78.99,-28.77 82.21,-34.98"/>
<text text-anchor="middle" x="74" y="-57.8" font-family="Times,serif" font-size="14.00">&#39;b&#39;:&#39;yx&#39;</text>
</g>
<!-- s -->
<!-- s&#45;&gt;0 -->
<g id="edge9" class="edge">
<title>s&#45;&gt;0</title>
<path fill="none" stroke="black" d="M90,-341.81C90,-333.79 90,-324.05 90,-315.07"/>
<polygon fill="black" stroke="black" points="93.5,-315.03 90,-305.03 86.5,-315.03 93.5,-315.03"/>
</g>
</g>
</svg>
