<?xml version="1.0" encoding="UTF-8" standalone="no"?>
<!DOCTYPE svg PUBLIC "-//W3C//DTD SVG 1.1//EN"
 "http://www.w3.org/Graphics/SVG/1.1/DTD/svg11.dtd">
<!-- Generated by graphviz version 2.46.0 (20210118.1747)
 -->
<!-- Title: G Pages: 1 -->
<svg width="229pt" height="212pt"
 viewBox="0.00 0.00 228.96 212.00" xmlns="http://www.w3.org/2000/svg" xmlns:xlink="http://www.w3.org/1999/xlink">
<g id="graph0" class="graph" transform="scale(1 1) rotate(0) translate(4 208)">
<title>G</title>
<polygon fill="white" stroke="transparent" points="-4,4 -4,-208 224.96,-208 224.96,4 -4,4"/>
<!-- 0 -->
<g id="node1" class="node">
<title>0</title>
<ellipse fill="none" stroke="black" cx="66.96" cy="-113" rx="27" ry="18"/>
<text text-anchor="middle" x="66.96" y="-109.3" font-family="Times,serif" font-size="14.00">0</text>
</g>
<!-- 3 -->
<g id="node2" class="node">
<title>3</title>
<ellipse fill="none" stroke="black" cx="143.96" cy="-22" rx="27" ry="18"/>
<ellipse fill="none" stroke="black" cx="143.96" cy="-22" rx="31" ry="22"/>
<text text-anchor="middle" x="143.96" y="-18.3" font-family="Times,serif" font-size="14.00">3</text>
</g>
<!-- 0&#45;&gt;3 -->
<g id="edge1" class="edge">
<title>0&#45;&gt;3</title>
<path fill="none" stroke="black" d="M84.77,-99.11C92.67,-92.92 101.78,-85.1 108.96,-77 115.84,-69.25 122.33,-60.02 127.81,-51.41"/>
<polygon fill="black" stroke="black" points="130.88,-53.1 133.13,-42.74 124.92,-49.43 130.88,-53.1"/>
<text text-anchor="middle" x="129.46" y="-65.8" font-family="Times,serif" font-size="14.00">&#39;a&#39;:&#39;&#39;</text>
</g>
<!-- 1 -->
<g id="node3" class="node">
<title>1</title>
<ellipse fill="none" stroke="black" cx="30.96" cy="-22" rx="27" ry="18"/>
<text text-anchor="middle" x="30.96" y="-18.3" font-family="Times,serif" font-size="14.00">1</text>
</g>
<!-- 0&#45;&gt;1 -->
<g id="edge2" class="edge">
<title>0&#45;&gt;1</title>
<path fill="none" stroke="black" d="M42.14,-105.32C27.99,-100.1 11.43,-91.27 2.96,-77 -3.18,-66.64 1.71,-54.79 9.02,-44.84"/>
<polygon fill="black" stroke="black" points="11.84,-46.92 15.54,-37 6.46,-42.45 11.84,-46.92"/>
<text text-anchor="middle" x="12.96" y="-65.8" font-family="Times,serif" font-size="14.00">&#39;b&#39;:&#39;&#39;</text>
</g>
<!-- 3&#45;&gt;0 -->
<g id="edge8" class="edge">
<title>3&#45;&gt;0</title>
<path fill="none" stroke="black" d="M118.52,-35.02C106.93,-41.59 93.84,-50.71 84.96,-62 79.67,-68.73 75.85,-77.16 73.13,-85.16"/>
<polygon fill="black" stroke="black" points="69.73,-84.33 70.25,-94.91 76.44,-86.31 69.73,-84.33"/>
<text text-anchor="middle" x="94.96" y="-65.8" font-family="Times,serif" font-size="14.00">&#39;b&#39;:&#39;&#39;</text>
</g>
<!-- 3&#45;&gt;3 -->
<g id="edge7" class="edge">
<title>3&#45;&gt;3</title>
<path fill="none" stroke="black" d="M172.65,-30.59C183.75,-30.97 192.96,-28.11 192.96,-22 192.96,-17.9 188.8,-15.26 182.71,-14.08"/>
<polygon fill="black" stroke="black" points="182.86,-10.58 172.65,-13.41 182.4,-17.57 182.86,-10.58"/>
<text text-anchor="middle" x="202.46" y="-18.3" font-family="Times,serif" font-size="14.00">&#39;a&#39;:&#39;&#39;</text>
</g>
<!-- 1&#45;&gt;0 -->
<g id="edge4" class="edge">
<title>1&#45;&gt;0</title>
<path fill="none" stroke="black" d="M34.43,-39.94C36.95,-50.79 40.82,-65.02 45.96,-77 47.45,-80.46 49.22,-83.99 51.1,-87.41"/>
<polygon fill="black" stroke="black" points="48.12,-89.24 56.19,-96.1 54.16,-85.7 48.12,-89.24"/>
<text text-anchor="middle" x="55.96" y="-65.8" font-family="Times,serif" font-size="14.00">&#39;b&#39;:&#39;&#39;</text>
</g>
<!-- 1&#45;&gt;1 -->
<g id="edge3" class="edge">
<title>1&#45;&gt;1</title>
<path fill="none" stroke="black" d="M55.04,-30.45C66.21,-31.38 75.96,-28.56 75.96,-22 75.96,-17.59 71.56,-14.88 65.28,-13.85"/>
<polygon fill="black" stroke="black" points="65.14,-10.34 55.04,-13.55 64.93,-17.34 65.14,-10.34"/>
<text text-anchor="middle" x="85.46" y="-18.3" font-family="Times,serif" font-size="14.00">&#39;a&#39;:&#39;&#39;</text>
</g>
<!-- 2 -->
<g id="node4" class="node">
<title>2</title>
<ellipse fill="none" stroke="black" cx="193.96" cy="-113" rx="27" ry="18"/>
<text text-anchor="middle" x="193.96" y="-109.3" font-family="Times,serif" font-size="14.00">2</text>
</g>
<!-- 2&#45;&gt;3 -->
<g id="edge5" class="edge">
<title>2&#45;&gt;3</title>
<path fill="none" stroke="black" d="M197.56,-94.96C198.84,-84.88 198.92,-72.14 193.96,-62 190.08,-54.04 183.69,-47.22 176.76,-41.63"/>
<polygon fill="black" stroke="black" points="178.64,-38.67 168.49,-35.62 174.52,-44.33 178.64,-38.67"/>
<text text-anchor="middle" x="206.46" y="-65.8" font-family="Times,serif" font-size="14.00">&#39;a&#39;:&#39;&#39;</text>
</g>
<!-- 2&#45;&gt;1 -->
<g id="edge6" class="edge">
<title>2&#45;&gt;1</title>
<path fill="none" stroke="black" d="M181.53,-96.61C171.98,-85.65 157.93,-71.28 142.96,-62 129.72,-53.78 92.96,-41.64 65.14,-33.1"/>
<polygon fill="black" stroke="black" points="65.94,-29.68 55.36,-30.12 63.91,-36.38 65.94,-29.68"/>
<text text-anchor="middle" x="170.96" y="-65.8" font-family="Times,serif" font-size="14.00">&#39;b&#39;:&#39;&#39;</text>
</g>
<!-- s -->
<!-- s&#45;&gt;2 -->
<g id="edge9" class="edge">
<title>s&#45;&gt;2</title>
<path fill="none" stroke="black" d="M193.96,-167.81C193.96,-159.79 193.96,-150.05 193.96,-141.07"/>
<polygon fill="black" stroke="black" points="197.46,-141.03 193.96,-131.03 190.46,-141.03 197.46,-141.03"/>
</g>
</g>
</svg>
