<?xml version="1.0" encoding="UTF-8" standalone="no"?>
<!DOCTYPE svg PUBLIC "-//W3C//DTD SVG 1.1//EN"
 "http://www.w3.org/Graphics/SVG/1.1/DTD/svg11.dtd">
<!-- Generated by graphviz version 2.46.0 (20210118.1747)
 -->
<!-- Title: G Pages: 1 -->
<svg width="208pt" height="220pt"
 viewBox="0.00 0.00 208.00 220.00" xmlns="http://www.w3.org/2000/svg" xmlns:xlink="http://www.w3.org/1999/xlink">
<g id="graph0" class="graph" transform="scale(1 1) rotate(0) translate(4 216)">
<title>G</title>
<polygon fill="white" stroke="transparent" points="-4,4 -4,-216 204,-216 204,4 -4,4"/>
<!-- 0 -->
<g id="node1" class="node">
<title>0</title>
<ellipse fill="none" stroke="black" cx="72" cy="-117" rx="27" ry="18"/>
<ellipse fill="none" stroke="black" cx="72" cy="-117" rx="31" ry="22"/>
<text text-anchor="middle" x="72" y="-113.3" font-family="Times,serif" font-size="14.00">0:&#39;y&#39;</text>
</g>
<!-- 1 -->
<g id="node2" class="node">
<title>1</title>
<ellipse fill="none" stroke="black" cx="140" cy="-22" rx="27" ry="18"/>
<ellipse fill="none" stroke="black" cx="140" cy="-22" rx="31" ry="22"/>
<text text-anchor="middle" x="140" y="-18.3" font-family="Times,serif" font-size="14.00">1:&#39;x&#39;</text>
</g>
<!-- 0&#45;&gt;1 -->
<g id="edge1" class="edge">
<title>0&#45;&gt;1</title>
<path fill="none" stroke="black" d="M85.76,-97.18C95.62,-83.69 109.06,-65.32 120.09,-50.23"/>
<polygon fill="black" stroke="black" points="123.18,-51.93 126.26,-41.79 117.53,-47.8 123.18,-51.93"/>
<text text-anchor="middle" x="115.5" y="-65.8" font-family="Times,serif" font-size="14.00">&#39;a&#39;</text>
</g>
<!-- 3 -->
<g id="node3" class="node">
<title>3</title>
<ellipse fill="none" stroke="black" cx="31" cy="-22" rx="27" ry="18"/>
<ellipse fill="none" stroke="black" cx="31" cy="-22" rx="31" ry="22"/>
<text text-anchor="middle" x="31" y="-18.3" font-family="Times,serif" font-size="14.00">3:&#39;x&#39;</text>
</g>
<!-- 0&#45;&gt;3 -->
<g id="edge2" class="edge">
<title>0&#45;&gt;3</title>
<path fill="none" stroke="black" d="M45.62,-104.97C34.01,-98.62 21.55,-89.41 15,-77 10.87,-69.17 11.66,-60.12 14.41,-51.69"/>
<polygon fill="black" stroke="black" points="17.75,-52.78 18.37,-42.2 11.29,-50.09 17.75,-52.78"/>
<text text-anchor="middle" x="21" y="-65.8" font-family="Times,serif" font-size="14.00">&#39;b&#39;</text>
</g>
<!-- 1&#45;&gt;0 -->
<g id="edge4" class="edge">
<title>1&#45;&gt;0</title>
<path fill="none" stroke="black" d="M115.19,-35.32C104.41,-41.85 92.55,-50.85 85,-62 80.4,-68.79 77.42,-77.04 75.5,-85.01"/>
<polygon fill="black" stroke="black" points="72.06,-84.36 73.58,-94.85 78.93,-85.7 72.06,-84.36"/>
<text text-anchor="middle" x="91" y="-65.8" font-family="Times,serif" font-size="14.00">&#39;b&#39;</text>
</g>
<!-- 1&#45;&gt;1 -->
<g id="edge3" class="edge">
<title>1&#45;&gt;1</title>
<path fill="none" stroke="black" d="M168.69,-30.59C179.78,-30.97 189,-28.11 189,-22 189,-17.9 184.84,-15.26 178.74,-14.08"/>
<polygon fill="black" stroke="black" points="178.9,-10.58 168.69,-13.41 178.43,-17.57 178.9,-10.58"/>
<text text-anchor="middle" x="194.5" y="-18.3" font-family="Times,serif" font-size="14.00">&#39;a&#39;</text>
</g>
<!-- 3&#45;&gt;0 -->
<g id="edge8" class="edge">
<title>3&#45;&gt;0</title>
<path fill="none" stroke="black" d="M37.3,-43.59C40.66,-53.8 45.11,-66.23 50,-77 51.57,-80.46 53.34,-84.02 55.18,-87.52"/>
<polygon fill="black" stroke="black" points="52.24,-89.43 60.12,-96.51 58.38,-86.06 52.24,-89.43"/>
<text text-anchor="middle" x="56" y="-65.8" font-family="Times,serif" font-size="14.00">&#39;b&#39;</text>
</g>
<!-- 3&#45;&gt;3 -->
<g id="edge7" class="edge">
<title>3&#45;&gt;3</title>
<path fill="none" stroke="black" d="M59.69,-30.59C70.78,-30.97 80,-28.11 80,-22 80,-17.9 75.84,-15.26 69.74,-14.08"/>
<polygon fill="black" stroke="black" points="69.9,-10.58 59.69,-13.41 69.43,-17.57 69.9,-10.58"/>
<text text-anchor="middle" x="85.5" y="-18.3" font-family="Times,serif" font-size="14.00">&#39;a&#39;</text>
</g>
<!-- 2 -->
<g id="node4" class="node">
<title>2</title>
<ellipse fill="none" stroke="black" cx="164" cy="-117" rx="27" ry="18"/>
<ellipse fill="none" stroke="black" cx="164" cy="-117" rx="31" ry="22"/>
<text text-anchor="middle" x="164" y="-113.3" font-family="Times,serif" font-size="14.00">2:&#39;y&#39;</text>
</g>
<!-- 2&#45;&gt;1 -->
<g id="edge5" class="edge">
<title>2&#45;&gt;1</title>
<path fill="none" stroke="black" d="M167.91,-95.08C169.03,-84.9 169.21,-72.6 166,-62 164.75,-57.88 162.91,-53.8 160.78,-49.92"/>
<polygon fill="black" stroke="black" points="163.66,-47.92 155.39,-41.29 157.72,-51.63 163.66,-47.92"/>
<text text-anchor="middle" x="173.5" y="-65.8" font-family="Times,serif" font-size="14.00">&#39;a&#39;</text>
</g>
<!-- 2&#45;&gt;3 -->
<g id="edge6" class="edge">
<title>2&#45;&gt;3</title>
<path fill="none" stroke="black" d="M153.37,-96.15C146.51,-84.9 136.7,-71.26 125,-62 108.75,-49.14 87.66,-39.88 69.57,-33.62"/>
<polygon fill="black" stroke="black" points="70.48,-30.23 59.89,-30.44 68.3,-36.88 70.48,-30.23"/>
<text text-anchor="middle" x="145" y="-65.8" font-family="Times,serif" font-size="14.00">&#39;b&#39;</text>
</g>
<!-- s -->
<!-- s&#45;&gt;2 -->
<g id="edge9" class="edge">
<title>s&#45;&gt;2</title>
<path fill="none" stroke="black" d="M164,-175.98C164,-168.15 164,-158.61 164,-149.54"/>
<polygon fill="black" stroke="black" points="167.5,-149.24 164,-139.24 160.5,-149.24 167.5,-149.24"/>
</g>
</g>
</svg>
