<?xml version="1.0" encoding="UTF-8" standalone="no"?>
<!DOCTYPE svg PUBLIC "-//W3C//DTD SVG 1.1//EN"
 "http://www.w3.org/Graphics/SVG/1.1/DTD/svg11.dtd">
<!-- Generated by graphviz version 2.46.0 (20210118.1747)
 -->
<!-- Title: G Pages: 1 -->
<svg width="161pt" height="410pt"
 viewBox="0.00 0.00 161.00 410.00" xmlns="http://www.w3.org/2000/svg" xmlns:xlink="http://www.w3.org/1999/xlink">
<g id="graph0" class="graph" transform="scale(1 1) rotate(0) translate(4 406)">
<title>G</title>
<polygon fill="white" stroke="transparent" points="-4,4 -4,-406 157,-406 157,4 -4,4"/>
<!-- 0 -->
<g id="node1" class="node">
<title>0</title>
<ellipse fill="none" stroke="black" cx="79" cy="-307" rx="27" ry="18"/>
<ellipse fill="none" stroke="black" cx="79" cy="-307" rx="31" ry="22"/>
<text text-anchor="middle" x="79" y="-303.3" font-family="Times,serif" font-size="14.00">0:&#39;y&#39;</text>
</g>
<!-- 1 -->
<g id="node2" class="node">
<title>1</title>
<ellipse fill="none" stroke="black" cx="31" cy="-212" rx="27" ry="18"/>
<ellipse fill="none" stroke="black" cx="31" cy="-212" rx="31" ry="22"/>
<text text-anchor="middle" x="31" y="-208.3" font-family="Times,serif" font-size="14.00">1:&#39;&#39;</text>
</g>
<!-- 0&#45;&gt;1 -->
<g id="edge1" class="edge">
<title>0&#45;&gt;1</title>
<path fill="none" stroke="black" d="M68.58,-285.82C61.93,-272.94 53.21,-256.03 45.84,-241.76"/>
<polygon fill="black" stroke="black" points="48.93,-240.1 41.23,-232.82 42.71,-243.31 48.93,-240.1"/>
<text text-anchor="middle" x="71" y="-255.8" font-family="Times,serif" font-size="14.00">&#39;a&#39;:&#39;x&#39;</text>
</g>
<!-- 2 -->
<g id="node3" class="node">
<title>2</title>
<ellipse fill="none" stroke="black" cx="78" cy="-22" rx="27" ry="18"/>
<ellipse fill="none" stroke="black" cx="78" cy="-22" rx="31" ry="22"/>
<text text-anchor="middle" x="78" y="-18.3" font-family="Times,serif" font-size="14.00">2:&#39;x&#39;</text>
</g>
<!-- 0&#45;&gt;2 -->
<g id="edge2" class="edge">
<title>0&#45;&gt;2</title>
<path fill="none" stroke="black" d="M89.4,-286.15C96.19,-272.04 104.44,-252.39 108,-234 115.34,-196.11 111.99,-98.34 101,-62 99.89,-58.32 98.36,-54.63 96.62,-51.06"/>
<polygon fill="black" stroke="black" points="99.52,-49.07 91.65,-41.99 93.39,-52.44 99.52,-49.07"/>
<text text-anchor="middle" x="128" y="-160.8" font-family="Times,serif" font-size="14.00">&#39;b&#39;:&#39;xx&#39;</text>
</g>
<!-- 1&#45;&gt;1 -->
<g id="edge3" class="edge">
<title>1&#45;&gt;1</title>
<path fill="none" stroke="black" d="M59.69,-220.59C70.78,-220.97 80,-218.11 80,-212 80,-207.9 75.84,-205.26 69.74,-204.08"/>
<polygon fill="black" stroke="black" points="69.9,-200.58 59.69,-203.41 69.43,-207.57 69.9,-200.58"/>
<text text-anchor="middle" x="89.5" y="-208.3" font-family="Times,serif" font-size="14.00">&#39;a&#39;:&#39;&#39;</text>
</g>
<!-- 3 -->
<g id="node4" class="node">
<title>3</title>
<ellipse fill="none" stroke="black" cx="35" cy="-117" rx="27" ry="18"/>
<ellipse fill="none" stroke="black" cx="35" cy="-117" rx="31" ry="22"/>
<text text-anchor="middle" x="35" y="-113.3" font-family="Times,serif" font-size="14.00">3:&#39;y&#39;</text>
</g>
<!-- 1&#45;&gt;3 -->
<g id="edge4" class="edge">
<title>1&#45;&gt;3</title>
<path fill="none" stroke="black" d="M20.58,-191.1C16.51,-180.95 13.38,-168.38 16,-157 16.79,-153.59 17.91,-150.14 19.23,-146.77"/>
<polygon fill="black" stroke="black" points="22.44,-148.16 23.32,-137.6 16.05,-145.31 22.44,-148.16"/>
<text text-anchor="middle" x="29.5" y="-160.8" font-family="Times,serif" font-size="14.00">&#39;b&#39;:&#39;x&#39;</text>
</g>
<!-- 2&#45;&gt;2 -->
<g id="edge5" class="edge">
<title>2&#45;&gt;2</title>
<path fill="none" stroke="black" d="M106.69,-30.59C117.78,-30.97 127,-28.11 127,-22 127,-17.9 122.84,-15.26 116.74,-14.08"/>
<polygon fill="black" stroke="black" points="116.9,-10.58 106.69,-13.41 116.43,-17.57 116.9,-10.58"/>
<text text-anchor="middle" x="140" y="-18.3" font-family="Times,serif" font-size="14.00">&#39;a&#39;:&#39;y&#39;</text>
</g>
<!-- 2&#45;&gt;3 -->
<g id="edge6" class="edge">
<title>2&#45;&gt;3</title>
<path fill="none" stroke="black" d="M70.25,-43.48C66.25,-53.67 61.14,-66.1 56,-77 54.4,-80.4 52.64,-83.92 50.85,-87.4"/>
<polygon fill="black" stroke="black" points="47.69,-85.89 46.1,-96.37 53.87,-89.17 47.69,-85.89"/>
<text text-anchor="middle" x="80" y="-65.8" font-family="Times,serif" font-size="14.00">&#39;b&#39;:&#39;yy&#39;</text>
</g>
<!-- 3&#45;&gt;1 -->
<g id="edge7" class="edge">
<title>3&#45;&gt;1</title>
<path fill="none" stroke="black" d="M40.97,-138.77C43.12,-148.81 44.65,-161.03 43,-172 42.57,-174.89 41.96,-177.86 41.25,-180.81"/>
<polygon fill="black" stroke="black" points="37.83,-180.05 38.52,-190.62 44.57,-181.92 37.83,-180.05"/>
<text text-anchor="middle" x="57" y="-160.8" font-family="Times,serif" font-size="14.00">&#39;a&#39;:&#39;x&#39;</text>
</g>
<!-- 3&#45;&gt;2 -->
<g id="edge8" class="edge">
<title>3&#45;&gt;2</title>
<path fill="none" stroke="black" d="M21.87,-97.04C16.18,-86.35 12.05,-72.97 18,-62 23.44,-51.97 32.71,-44.11 42.35,-38.17"/>
<polygon fill="black" stroke="black" points="44.18,-41.15 51.21,-33.23 40.77,-35.04 44.18,-41.15"/>
<text text-anchor="middle" x="35" y="-65.8" font-family="Times,serif" font-size="14.00">&#39;b&#39;:&#39;xx&#39;</text>
</g>
<!-- s -->
<!-- s&#45;&gt;0 -->
<g id="edge9" class="edge">
<title>s&#45;&gt;0</title>
<path fill="none" stroke="black" d="M79,-365.98C79,-358.15 79,-348.61 79,-339.54"/>
<polygon fill="black" stroke="black" points="82.5,-339.24 79,-329.24 75.5,-339.24 82.5,-339.24"/>
</g>
</g>
</svg>
