<?xml version="1.0" encoding="UTF-8" standalone="no"?>
<!DOCTYPE svg PUBLIC "-//W3C//DTD SVG 1.1//EN"
 "http://www.w3.org/Graphics/SVG/1.1/DTD/svg11.dtd">
<!-- Generated by graphviz version 2.46.0 (20210118.1747)
 -->
<!-- Title: G Pages: 1 -->
<svg width="155pt" height="394pt"
 viewBox="0.00 0.00 155.00 394.00" xmlns="http://www.w3.org/2000/svg" xmlns:xlink="http://www.w3.org/1999/xlink">
<g id="graph0" class="graph" transform="scale(1 1) rotate(0) translate(4 390)">
<title>G</title>
<polygon fill="white" stroke="transparent" points="-4,4 -4,-390 151,-390 151,4 -4,4"/>
<!-- 0 -->
<g id="node1" class="node">
<title>0</title>
<ellipse fill="none" stroke="black" cx="33" cy="-200" rx="27" ry="18"/>
<text text-anchor="middle" x="33" y="-196.3" font-family="Times,serif" font-size="14.00">0</text>
</g>
<!-- 0&#45;&gt;0 -->
<g id="edge1" class="edge">
<title>0&#45;&gt;0</title>
<path fill="none" stroke="black" d="M57.53,-207.75C68.51,-208.49 78,-205.91 78,-200 78,-196.03 73.72,-193.56 67.57,-192.59"/>
<polygon fill="black" stroke="black" points="67.65,-189.09 57.53,-192.25 67.41,-196.09 67.65,-189.09"/>
<text text-anchor="middle" x="87.5" y="-196.3" font-family="Times,serif" font-size="14.00">&#39;a&#39;:&#39;&#39;</text>
</g>
<!-- 1 -->
<g id="node2" class="node">
<title>1</title>
<ellipse fill="none" stroke="black" cx="31" cy="-109" rx="27" ry="18"/>
<ellipse fill="none" stroke="black" cx="31" cy="-109" rx="31" ry="22"/>
<text text-anchor="middle" x="31" y="-105.3" font-family="Times,serif" font-size="14.00">1:&#39;y&#39;</text>
</g>
<!-- 0&#45;&gt;1 -->
<g id="edge2" class="edge">
<title>0&#45;&gt;1</title>
<path fill="none" stroke="black" d="M22.33,-183.31C18.97,-177.51 15.7,-170.7 14,-164 11.92,-155.81 13.16,-147.02 15.72,-138.97"/>
<polygon fill="black" stroke="black" points="19,-140.18 19.36,-129.6 12.47,-137.65 19,-140.18"/>
<text text-anchor="middle" x="27.5" y="-152.8" font-family="Times,serif" font-size="14.00">&#39;b&#39;:&#39;x&#39;</text>
</g>
<!-- 1&#45;&gt;0 -->
<g id="edge3" class="edge">
<title>1&#45;&gt;0</title>
<path fill="none" stroke="black" d="M37.75,-130.67C40.27,-140.68 42.25,-152.92 41,-164 40.7,-166.69 40.26,-169.48 39.76,-172.26"/>
<polygon fill="black" stroke="black" points="36.33,-171.53 37.68,-182.04 43.18,-172.99 36.33,-171.53"/>
<text text-anchor="middle" x="54" y="-152.8" font-family="Times,serif" font-size="14.00">&#39;a&#39;:&#39;x&#39;</text>
</g>
<!-- 3 -->
<g id="node3" class="node">
<title>3</title>
<ellipse fill="none" stroke="black" cx="76" cy="-18" rx="27" ry="18"/>
<text text-anchor="middle" x="76" y="-14.3" font-family="Times,serif" font-size="14.00">3</text>
</g>
<!-- 1&#45;&gt;3 -->
<g id="edge4" class="edge">
<title>1&#45;&gt;3</title>
<path fill="none" stroke="black" d="M20.66,-88.01C16.65,-77.37 14.25,-64.38 20,-54 25.21,-44.6 34.11,-37.39 43.31,-32.03"/>
<polygon fill="black" stroke="black" points="45.21,-34.98 52.47,-27.27 41.99,-28.77 45.21,-34.98"/>
<text text-anchor="middle" x="37" y="-57.8" font-family="Times,serif" font-size="14.00">&#39;b&#39;:&#39;xx&#39;</text>
</g>
<!-- 3&#45;&gt;1 -->
<g id="edge8" class="edge">
<title>3&#45;&gt;1</title>
<path fill="none" stroke="black" d="M69.15,-35.9C65.04,-45.7 59.54,-58.2 54,-69 52.2,-72.52 50.21,-76.16 48.19,-79.74"/>
<polygon fill="black" stroke="black" points="45.15,-78.01 43.16,-88.41 51.21,-81.52 45.15,-78.01"/>
<text text-anchor="middle" x="78" y="-57.8" font-family="Times,serif" font-size="14.00">&#39;b&#39;:&#39;yy&#39;</text>
</g>
<!-- 3&#45;&gt;3 -->
<g id="edge7" class="edge">
<title>3&#45;&gt;3</title>
<path fill="none" stroke="black" d="M100.53,-25.75C111.51,-26.49 121,-23.91 121,-18 121,-14.03 116.72,-11.56 110.57,-10.59"/>
<polygon fill="black" stroke="black" points="110.65,-7.09 100.53,-10.25 110.41,-14.09 110.65,-7.09"/>
<text text-anchor="middle" x="134" y="-14.3" font-family="Times,serif" font-size="14.00">&#39;a&#39;:&#39;y&#39;</text>
</g>
<!-- 2 -->
<g id="node4" class="node">
<title>2</title>
<ellipse fill="none" stroke="black" cx="79" cy="-291" rx="27" ry="18"/>
<ellipse fill="none" stroke="black" cx="79" cy="-291" rx="31" ry="22"/>
<text text-anchor="middle" x="79" y="-287.3" font-family="Times,serif" font-size="14.00">2:&#39;y&#39;</text>
</g>
<!-- 2&#45;&gt;0 -->
<g id="edge5" class="edge">
<title>2&#45;&gt;0</title>
<path fill="none" stroke="black" d="M68.56,-269.8C61.89,-256.89 53.17,-240.03 46.04,-226.23"/>
<polygon fill="black" stroke="black" points="49.1,-224.53 41.4,-217.25 42.88,-227.75 49.1,-224.53"/>
<text text-anchor="middle" x="71" y="-239.8" font-family="Times,serif" font-size="14.00">&#39;a&#39;:&#39;x&#39;</text>
</g>
<!-- 2&#45;&gt;3 -->
<g id="edge6" class="edge">
<title>2&#45;&gt;3</title>
<path fill="none" stroke="black" d="M88.69,-270.07C95.01,-255.92 102.69,-236.26 106,-218 113.16,-178.5 114.3,-100.48 99,-54 97.73,-50.15 95.92,-46.31 93.87,-42.67"/>
<polygon fill="black" stroke="black" points="96.75,-40.68 88.44,-34.11 90.84,-44.43 96.75,-40.68"/>
<text text-anchor="middle" x="128" y="-152.8" font-family="Times,serif" font-size="14.00">&#39;b&#39;:&#39;xx&#39;</text>
</g>
<!-- s -->
<!-- s&#45;&gt;2 -->
<g id="edge9" class="edge">
<title>s&#45;&gt;2</title>
<path fill="none" stroke="black" d="M79,-349.98C79,-342.15 79,-332.61 79,-323.54"/>
<polygon fill="black" stroke="black" points="82.5,-323.24 79,-313.24 75.5,-323.24 82.5,-323.24"/>
</g>
</g>
</svg>
