<?xml version="1.0" encoding="UTF-8" standalone="no"?>
<!DOCTYPE svg PUBLIC "-//W3C//DTD SVG 1.1//EN"
 "http://www.w3.org/Graphics/SVG/1.1/DTD/svg11.dtd">
<!-- Generated by graphviz version 2.46.0 (20210118.1747)
 -->
<!-- Title: G Pages: 1 -->
<svg width="168pt" height="410pt"
 viewBox="0.00 0.00 168.00 410.00" xmlns="http://www.w3.org/2000/svg" xmlns:xlink="http://www.w3.org/1999/xlink">
<g id="graph0" class="graph" transform="scale(1 1) rotate(0) translate(4 406)">
<title>G</title>
<polygon fill="white" stroke="transparent" points="-4,4 -4,-406 164,-406 164,4 -4,4"/>
<!-- 0 -->
<g id="node1" class="node">
<title>0</title>
<ellipse fill="none" stroke="black" cx="31" cy="-212" rx="27" ry="18"/>
<ellipse fill="none" stroke="black" cx="31" cy="-212" rx="31" ry="22"/>
<text text-anchor="middle" x="31" y="-208.3" font-family="Times,serif" font-size="14.00">0:∅</text>
</g>
<!-- 0&#45;&gt;0 -->
<g id="edge1" class="edge">
<title>0&#45;&gt;0</title>
<path fill="none" stroke="black" d="M59.69,-220.59C70.78,-220.97 80,-218.11 80,-212 80,-207.9 75.84,-205.26 69.74,-204.08"/>
<polygon fill="black" stroke="black" points="69.9,-200.58 59.69,-203.41 69.43,-207.57 69.9,-200.58"/>
<text text-anchor="middle" x="93" y="-208.3" font-family="Times,serif" font-size="14.00">&#39;a&#39;:&#39;y&#39;</text>
</g>
<!-- 2 -->
<g id="node2" class="node">
<title>2</title>
<ellipse fill="none" stroke="black" cx="51" cy="-117" rx="27" ry="18"/>
<ellipse fill="none" stroke="black" cx="51" cy="-117" rx="31" ry="22"/>
<text text-anchor="middle" x="51" y="-113.3" font-family="Times,serif" font-size="14.00">2:&#39;y&#39;</text>
</g>
<!-- 0&#45;&gt;2 -->
<g id="edge2" class="edge">
<title>0&#45;&gt;2</title>
<path fill="none" stroke="black" d="M13.61,-193.6C5.26,-183.07 -1.79,-169.33 4,-157 7.49,-149.58 13.16,-143.08 19.37,-137.63"/>
<polygon fill="black" stroke="black" points="21.73,-140.23 27.41,-131.28 17.39,-134.73 21.73,-140.23"/>
<text text-anchor="middle" x="21" y="-160.8" font-family="Times,serif" font-size="14.00">&#39;b&#39;:&#39;yy&#39;</text>
</g>
<!-- 2&#45;&gt;0 -->
<g id="edge6" class="edge">
<title>2&#45;&gt;0</title>
<path fill="none" stroke="black" d="M46.48,-139.02C43.87,-151.13 40.55,-166.58 37.65,-180.06"/>
<polygon fill="black" stroke="black" points="34.22,-179.38 35.54,-189.9 41.06,-180.86 34.22,-179.38"/>
<text text-anchor="middle" x="60" y="-160.8" font-family="Times,serif" font-size="14.00">&#39;b&#39;:&#39;xx&#39;</text>
</g>
<!-- 1 -->
<g id="node3" class="node">
<title>1</title>
<ellipse fill="none" stroke="black" cx="92" cy="-22" rx="27" ry="18"/>
<ellipse fill="none" stroke="black" cx="92" cy="-22" rx="31" ry="22"/>
<text text-anchor="middle" x="92" y="-18.3" font-family="Times,serif" font-size="14.00">1:∅</text>
</g>
<!-- 2&#45;&gt;1 -->
<g id="edge5" class="edge">
<title>2&#45;&gt;1</title>
<path fill="none" stroke="black" d="M40.92,-95.94C37.07,-85.4 34.74,-72.53 40,-62 44.1,-53.8 50.83,-46.88 58.11,-41.25"/>
<polygon fill="black" stroke="black" points="60.56,-43.81 66.79,-35.24 56.58,-38.06 60.56,-43.81"/>
<text text-anchor="middle" x="53" y="-65.8" font-family="Times,serif" font-size="14.00">&#39;a&#39;:&#39;x&#39;</text>
</g>
<!-- 1&#45;&gt;2 -->
<g id="edge4" class="edge">
<title>1&#45;&gt;2</title>
<path fill="none" stroke="black" d="M84.06,-43.39C80.01,-53.56 74.91,-66 70,-77 68.57,-80.19 67.04,-83.51 65.49,-86.8"/>
<polygon fill="black" stroke="black" points="62.3,-85.35 61.12,-95.88 68.61,-88.38 62.3,-85.35"/>
<text text-anchor="middle" x="89.5" y="-65.8" font-family="Times,serif" font-size="14.00">&#39;b&#39;:&#39;x&#39;</text>
</g>
<!-- 1&#45;&gt;1 -->
<g id="edge3" class="edge">
<title>1&#45;&gt;1</title>
<path fill="none" stroke="black" d="M120.69,-30.59C131.78,-30.97 141,-28.11 141,-22 141,-17.9 136.84,-15.26 130.74,-14.08"/>
<polygon fill="black" stroke="black" points="130.9,-10.58 120.69,-13.41 130.43,-17.57 130.9,-10.58"/>
<text text-anchor="middle" x="150.5" y="-18.3" font-family="Times,serif" font-size="14.00">&#39;a&#39;:&#39;&#39;</text>
</g>
<!-- 3 -->
<g id="node4" class="node">
<title>3</title>
<ellipse fill="none" stroke="black" cx="82" cy="-307" rx="27" ry="18"/>
<ellipse fill="none" stroke="black" cx="82" cy="-307" rx="31" ry="22"/>
<text text-anchor="middle" x="82" y="-303.3" font-family="Times,serif" font-size="14.00">3:&#39;y&#39;</text>
</g>
<!-- 3&#45;&gt;0 -->
<g id="edge8" class="edge">
<title>3&#45;&gt;0</title>
<path fill="none" stroke="black" d="M71.18,-286.28C64.08,-273.33 54.68,-256.18 46.76,-241.73"/>
<polygon fill="black" stroke="black" points="49.68,-239.78 41.8,-232.69 43.54,-243.15 49.68,-239.78"/>
<text text-anchor="middle" x="76" y="-255.8" font-family="Times,serif" font-size="14.00">&#39;b&#39;:&#39;xx&#39;</text>
</g>
<!-- 3&#45;&gt;1 -->
<g id="edge7" class="edge">
<title>3&#45;&gt;1</title>
<path fill="none" stroke="black" d="M93.82,-286.33C101.55,-272.3 110.92,-252.67 115,-234 122.54,-199.45 117.09,-108.26 107,-62 106.34,-58.98 105.49,-55.88 104.52,-52.82"/>
<polygon fill="black" stroke="black" points="107.78,-51.54 101.14,-43.28 101.18,-53.88 107.78,-51.54"/>
<text text-anchor="middle" x="131" y="-160.8" font-family="Times,serif" font-size="14.00">&#39;a&#39;:&#39;x&#39;</text>
</g>
<!-- s -->
<!-- s&#45;&gt;3 -->
<g id="edge9" class="edge">
<title>s&#45;&gt;3</title>
<path fill="none" stroke="black" d="M82,-365.98C82,-358.15 82,-348.61 82,-339.54"/>
<polygon fill="black" stroke="black" points="85.5,-339.24 82,-329.24 78.5,-339.24 85.5,-339.24"/>
</g>
</g>
</svg>
