<?xml version="1.0" encoding="UTF-8" standalone="no"?>
<!DOCTYPE svg PUBLIC "-//W3C//DTD SVG 1.1//EN"
 "http://www.w3.org/Graphics/SVG/1.1/DTD/svg11.dtd">
<!-- Generated by graphviz version 2.46.0 (20210118.1747)
 -->
<!-- Title: G Pages: 1 -->
<svg width="70pt" height="226pt"
 viewBox="0.00 0.00 70.00 226.00" xmlns="http://www.w3.org/2000/svg" xmlns:xlink="http://www.w3.org/1999/xlink">
<g id="graph0" class="graph" transform="scale(1 1) rotate(0) translate(4 222)">
<title>G</title>
<polygon fill="white" stroke="transparent" points="-4,4 -4,-222 66,-222 66,4 -4,4"/>
<!-- 0 -->
<g id="node1" class="node">
<title>0</title>
<ellipse fill="none" stroke="black" cx="31" cy="-113" rx="27" ry="18"/>
<text text-anchor="middle" x="31" y="-109.3" font-family="Times,serif" font-size="14.00">0</text>
</g>
<!-- 1 -->
<g id="node2" class="node">
<title>1</title>
<ellipse fill="none" stroke="black" cx="31" cy="-22" rx="27" ry="18"/>
<ellipse fill="none" stroke="black" cx="31" cy="-22" rx="31" ry="22"/>
<text text-anchor="middle" x="31" y="-18.3" font-family="Times,serif" font-size="14.00">1</text>
</g>
<!-- 0&#45;&gt;1 -->
<g id="edge1" class="edge">
<title>0&#45;&gt;1</title>
<path fill="none" stroke="black" d="M31,-94.84C31,-83.44 31,-68.13 31,-54.58"/>
<polygon fill="black" stroke="black" points="34.5,-54.19 31,-44.19 27.5,-54.19 34.5,-54.19"/>
<text text-anchor="middle" x="37" y="-65.8" font-family="Times,serif" font-size="14.00">&#39;b&#39;</text>
</g>
<!-- 2 -->
<!-- 2&#45;&gt;0 -->
<g id="edge2" class="edge">
<title>2&#45;&gt;0</title>
<path fill="none" stroke="black" d="M31,-181.8C31,-170.16 31,-154.55 31,-141.24"/>
<polygon fill="black" stroke="black" points="34.5,-141.18 31,-131.18 27.5,-141.18 34.5,-141.18"/>
<text text-anchor="middle" x="36.5" y="-152.8" font-family="Times,serif" font-size="14.00">&#39;a&#39;</text>
</g>
</g>
</svg>
