<?xml version="1.0" encoding="UTF-8" standalone="no"?>
<!DOCTYPE svg PUBLIC "-//W3C//DTD SVG 1.1//EN"
 "http://www.w3.org/Graphics/SVG/1.1/DTD/svg11.dtd">
<!-- Generated by graphviz version 2.46.0 (20210118.1747)
 -->
<!-- Title: G Pages: 1 -->
<svg width="160pt" height="386pt"
 viewBox="0.00 0.00 160.00 386.00" xmlns="http://www.w3.org/2000/svg" xmlns:xlink="http://www.w3.org/1999/xlink">
<g id="graph0" class="graph" transform="scale(1 1) rotate(0) translate(4 382)">
<title>G</title>
<polygon fill="white" stroke="transparent" points="-4,4 -4,-382 156,-382 156,4 -4,4"/>
<!-- 0 -->
<g id="node1" class="node">
<title>0</title>
<ellipse fill="none" stroke="black" cx="27" cy="-200" rx="27" ry="18"/>
<text text-anchor="middle" x="27" y="-196.3" font-family="Times,serif" font-size="14.00">0</text>
</g>
<!-- 0&#45;&gt;0 -->
<g id="edge1" class="edge">
<title>0&#45;&gt;0</title>
<path fill="none" stroke="black" d="M51.53,-207.75C62.51,-208.49 72,-205.91 72,-200 72,-196.03 67.72,-193.56 61.57,-192.59"/>
<polygon fill="black" stroke="black" points="61.65,-189.09 51.53,-192.25 61.41,-196.09 61.65,-189.09"/>
<text text-anchor="middle" x="81.5" y="-196.3" font-family="Times,serif" font-size="14.00">&#39;a&#39;:&#39;&#39;</text>
</g>
<!-- 3 -->
<g id="node2" class="node">
<title>3</title>
<ellipse fill="none" stroke="black" cx="49" cy="-113" rx="27" ry="18"/>
<text text-anchor="middle" x="49" y="-109.3" font-family="Times,serif" font-size="14.00">3</text>
</g>
<!-- 0&#45;&gt;3 -->
<g id="edge2" class="edge">
<title>0&#45;&gt;3</title>
<path fill="none" stroke="black" d="M17.62,-182.87C13.07,-172.89 9.47,-159.94 14,-149 16.32,-143.41 20.01,-138.24 24.15,-133.69"/>
<polygon fill="black" stroke="black" points="26.65,-136.14 31.36,-126.65 21.76,-131.13 26.65,-136.14"/>
<text text-anchor="middle" x="24" y="-152.8" font-family="Times,serif" font-size="14.00">&#39;b&#39;:&#39;&#39;</text>
</g>
<!-- 3&#45;&gt;0 -->
<g id="edge8" class="edge">
<title>3&#45;&gt;0</title>
<path fill="none" stroke="black" d="M44.59,-131.05C41.52,-142.91 37.37,-158.95 33.87,-172.47"/>
<polygon fill="black" stroke="black" points="30.46,-171.65 31.35,-182.21 37.24,-173.4 30.46,-171.65"/>
<text text-anchor="middle" x="50" y="-152.8" font-family="Times,serif" font-size="14.00">&#39;b&#39;:&#39;&#39;</text>
</g>
<!-- 1 -->
<g id="node3" class="node">
<title>1</title>
<ellipse fill="none" stroke="black" cx="84" cy="-22" rx="27" ry="18"/>
<ellipse fill="none" stroke="black" cx="84" cy="-22" rx="31" ry="22"/>
<text text-anchor="middle" x="84" y="-18.3" font-family="Times,serif" font-size="14.00">1:&#39;&#39;</text>
</g>
<!-- 3&#45;&gt;1 -->
<g id="edge7" class="edge">
<title>3&#45;&gt;1</title>
<path fill="none" stroke="black" d="M41.35,-95.64C37.77,-85.58 35.22,-72.62 40,-62 43.05,-55.22 47.93,-49.13 53.35,-43.9"/>
<polygon fill="black" stroke="black" points="55.69,-46.51 60.96,-37.31 51.11,-41.22 55.69,-46.51"/>
<text text-anchor="middle" x="49.5" y="-65.8" font-family="Times,serif" font-size="14.00">&#39;a&#39;:&#39;&#39;</text>
</g>
<!-- 1&#45;&gt;3 -->
<g id="edge4" class="edge">
<title>1&#45;&gt;3</title>
<path fill="none" stroke="black" d="M75.97,-43.41C71.05,-55.93 64.7,-72.08 59.39,-85.57"/>
<polygon fill="black" stroke="black" points="55.99,-84.67 55.58,-95.26 62.5,-87.23 55.99,-84.67"/>
<text text-anchor="middle" x="78" y="-65.8" font-family="Times,serif" font-size="14.00">&#39;b&#39;:&#39;&#39;</text>
</g>
<!-- 1&#45;&gt;1 -->
<g id="edge3" class="edge">
<title>1&#45;&gt;1</title>
<path fill="none" stroke="black" d="M112.69,-30.59C123.78,-30.97 133,-28.11 133,-22 133,-17.9 128.84,-15.26 122.74,-14.08"/>
<polygon fill="black" stroke="black" points="122.9,-10.58 112.69,-13.41 122.43,-17.57 122.9,-10.58"/>
<text text-anchor="middle" x="142.5" y="-18.3" font-family="Times,serif" font-size="14.00">&#39;a&#39;:&#39;&#39;</text>
</g>
<!-- 2 -->
<g id="node4" class="node">
<title>2</title>
<ellipse fill="none" stroke="black" cx="73" cy="-287" rx="27" ry="18"/>
<text text-anchor="middle" x="73" y="-283.3" font-family="Times,serif" font-size="14.00">2</text>
</g>
<!-- 2&#45;&gt;0 -->
<g id="edge6" class="edge">
<title>2&#45;&gt;0</title>
<path fill="none" stroke="black" d="M64.13,-269.61C57.47,-257.3 48.23,-240.23 40.63,-226.19"/>
<polygon fill="black" stroke="black" points="43.52,-224.18 35.69,-217.05 37.37,-227.51 43.52,-224.18"/>
<text text-anchor="middle" x="62" y="-239.8" font-family="Times,serif" font-size="14.00">&#39;b&#39;:&#39;&#39;</text>
</g>
<!-- 2&#45;&gt;1 -->
<g id="edge5" class="edge">
<title>2&#45;&gt;1</title>
<path fill="none" stroke="black" d="M81.48,-269.76C88,-256.31 96.47,-236.46 100,-218 110.97,-160.67 100,-92.44 91.61,-53.78"/>
<polygon fill="black" stroke="black" points="94.94,-52.67 89.33,-43.69 88.12,-54.22 94.94,-52.67"/>
<text text-anchor="middle" x="113.5" y="-152.8" font-family="Times,serif" font-size="14.00">&#39;a&#39;:&#39;&#39;</text>
</g>
<!-- s -->
<!-- s&#45;&gt;2 -->
<g id="edge9" class="edge">
<title>s&#45;&gt;2</title>
<path fill="none" stroke="black" d="M73,-341.81C73,-333.79 73,-324.05 73,-315.07"/>
<polygon fill="black" stroke="black" points="76.5,-315.03 73,-305.03 69.5,-315.03 76.5,-315.03"/>
</g>
</g>
</svg>
