<?xml version="1.0" encoding="UTF-8" standalone="no"?>
<!DOCTYPE svg PUBLIC "-//W3C//DTD SVG 1.1//EN"
 "http://www.w3.org/Graphics/SVG/1.1/DTD/svg11.dtd">
<!-- Generated by graphviz version 2.46.0 (20210118.1747)
 -->
<!-- Title: G Pages: 1 -->
<svg width="150pt" height="212pt"
 viewBox="0.00 0.00 150.00 212.00" xmlns="http://www.w3.org/2000/svg" xmlns:xlink="http://www.w3.org/1999/xlink">
<g id="graph0" class="graph" transform="scale(1 1) rotate(0) translate(4 208)">
<title>G</title>
<polygon fill="white" stroke="transparent" points="-4,4 -4,-208 146,-208 146,4 -4,4"/>
<!-- 0 -->
<g id="node1" class="node">
<title>0</title>
<ellipse fill="none" stroke="black" cx="31" cy="-22" rx="27" ry="18"/>
<ellipse fill="none" stroke="black" cx="31" cy="-22" rx="31" ry="22"/>
<text text-anchor="middle" x="31" y="-18.3" font-family="Times,serif" font-size="14.00">0:&#39;&#39;</text>
</g>
<!-- 1 -->
<g id="node2" class="node">
<title>1</title>
<ellipse fill="none" stroke="black" cx="111" cy="-22" rx="27" ry="18"/>
<ellipse fill="none" stroke="black" cx="111" cy="-22" rx="31" ry="22"/>
<text text-anchor="middle" x="111" y="-18.3" font-family="Times,serif" font-size="14.00">1:&#39;&#39;</text>
</g>
<!-- 2 -->
<g id="node3" class="node">
<title>2</title>
<ellipse fill="none" stroke="black" cx="71" cy="-113" rx="27" ry="18"/>
<text text-anchor="middle" x="71" y="-109.3" font-family="Times,serif" font-size="14.00">2</text>
</g>
<!-- 2&#45;&gt;0 -->
<g id="edge1" class="edge">
<title>2&#45;&gt;0</title>
<path fill="none" stroke="black" d="M63.66,-95.68C58.28,-83.69 50.81,-67.07 44.37,-52.75"/>
<polygon fill="black" stroke="black" points="47.41,-50.97 40.12,-43.28 41.02,-53.84 47.41,-50.97"/>
<text text-anchor="middle" x="68" y="-65.8" font-family="Times,serif" font-size="14.00">&#39;a&#39;:&#39;y&#39;</text>
</g>
<!-- 2&#45;&gt;1 -->
<g id="edge2" class="edge">
<title>2&#45;&gt;1</title>
<path fill="none" stroke="black" d="M78.34,-95.68C83.72,-83.69 91.19,-67.07 97.63,-52.75"/>
<polygon fill="black" stroke="black" points="100.98,-53.84 101.88,-43.28 94.59,-50.97 100.98,-53.84"/>
<text text-anchor="middle" x="106" y="-65.8" font-family="Times,serif" font-size="14.00">&#39;a&#39;:&#39;x&#39;</text>
</g>
<!-- s -->
<!-- s&#45;&gt;2 -->
<g id="edge3" class="edge">
<title>s&#45;&gt;2</title>
<path fill="none" stroke="black" d="M71,-167.81C71,-159.79 71,-150.05 71,-141.07"/>
<polygon fill="black" stroke="black" points="74.5,-141.03 71,-131.03 67.5,-141.03 74.5,-141.03"/>
</g>
</g>
</svg>
