<?xml version="1.0" encoding="UTF-8" standalone="no"?>
<!DOCTYPE svg PUBLIC "-//W3C//DTD SVG 1.1//EN"
 "http://www.w3.org/Graphics/SVG/1.1/DTD/svg11.dtd">
<!-- Generated by graphviz version 2.46.0 (20210118.1747)
 -->
<!-- Title: G Pages: 1 -->
<svg width="134pt" height="299pt"
 viewBox="0.00 0.00 134.00 299.00" xmlns="http://www.w3.org/2000/svg" xmlns:xlink="http://www.w3.org/1999/xlink">
<g id="graph0" class="graph" transform="scale(1 1) rotate(0) translate(4 295)">
<title>G</title>
<polygon fill="white" stroke="transparent" points="-4,4 -4,-295 130,-295 130,4 -4,4"/>
<!-- 0 -->
<g id="node1" class="node">
<title>0</title>
<ellipse fill="none" stroke="black" cx="63" cy="-200" rx="27" ry="18"/>
<text text-anchor="middle" x="63" y="-196.3" font-family="Times,serif" font-size="14.00">0</text>
</g>
<!-- 2 -->
<g id="node2" class="node">
<title>2</title>
<ellipse fill="none" stroke="black" cx="27" cy="-113" rx="27" ry="18"/>
<text text-anchor="middle" x="27" y="-109.3" font-family="Times,serif" font-size="14.00">2</text>
</g>
<!-- 0&#45;&gt;2 -->
<g id="edge1" class="edge">
<title>0&#45;&gt;2</title>
<path fill="none" stroke="black" d="M49.77,-184.24C45.09,-178.32 40.2,-171.19 37,-164 33.84,-156.88 31.67,-148.75 30.18,-141.14"/>
<polygon fill="black" stroke="black" points="33.63,-140.53 28.55,-131.23 26.72,-141.67 33.63,-140.53"/>
<text text-anchor="middle" x="55.5" y="-152.8" font-family="Times,serif" font-size="14.00">&#39;a&#39;:0 &#39;x&#39;</text>
</g>
<!-- 3 -->
<g id="node3" class="node">
<title>3</title>
<ellipse fill="none" stroke="black" cx="99" cy="-113" rx="27" ry="18"/>
<text text-anchor="middle" x="99" y="-109.3" font-family="Times,serif" font-size="14.00">3</text>
</g>
<!-- 0&#45;&gt;3 -->
<g id="edge2" class="edge">
<title>0&#45;&gt;3</title>
<path fill="none" stroke="black" d="M70.11,-182.21C75.22,-170.14 82.21,-153.64 88.03,-139.89"/>
<polygon fill="black" stroke="black" points="91.35,-141.04 92.02,-130.47 84.9,-138.31 91.35,-141.04"/>
<text text-anchor="middle" x="101.5" y="-152.8" font-family="Times,serif" font-size="14.00">&#39;a&#39;:0 &#39;y&#39;</text>
</g>
<!-- 1 -->
<g id="node4" class="node">
<title>1</title>
<ellipse fill="none" stroke="black" cx="63" cy="-22" rx="27" ry="18"/>
<ellipse fill="none" stroke="black" cx="63" cy="-22" rx="31" ry="22"/>
<text text-anchor="middle" x="63" y="-18.3" font-family="Times,serif" font-size="14.00">1:0</text>
</g>
<!-- 2&#45;&gt;1 -->
<g id="edge3" class="edge">
<title>2&#45;&gt;1</title>
<path fill="none" stroke="black" d="M30.68,-94.99C33.08,-85.16 36.58,-72.66 41,-62 42.46,-58.49 44.16,-54.9 45.96,-51.39"/>
<polygon fill="black" stroke="black" points="49.16,-52.83 50.86,-42.38 43.01,-49.49 49.16,-52.83"/>
<text text-anchor="middle" x="56.5" y="-65.8" font-family="Times,serif" font-size="14.00">&#39;b&#39;:1 &#39;&#39;</text>
</g>
<!-- 3&#45;&gt;1 -->
<g id="edge4" class="edge">
<title>3&#45;&gt;1</title>
<path fill="none" stroke="black" d="M92.23,-95.26C87.4,-83.31 80.77,-66.92 75.04,-52.77"/>
<polygon fill="black" stroke="black" points="78.25,-51.37 71.26,-43.41 71.76,-54 78.25,-51.37"/>
<text text-anchor="middle" x="99.5" y="-65.8" font-family="Times,serif" font-size="14.00">&#39;b&#39;:2 &#39;&#39;</text>
</g>
<!-- s -->
<!-- s&#45;&gt;0 -->
<g id="edge5" class="edge">
<title>s&#45;&gt;0</title>
<path fill="none" stroke="black" d="M63,-254.81C63,-246.79 63,-237.05 63,-228.07"/>
<polygon fill="black" stroke="black" points="66.5,-228.03 63,-218.03 59.5,-228.03 66.5,-228.03"/>
</g>
</g>
</svg>
