<?xml version="1.0" encoding="UTF-8" standalone="no"?>
<!DOCTYPE svg PUBLIC "-//W3C//DTD SVG 1.1//EN"
 "http://www.w3.org/Graphics/SVG/1.1/DTD/svg11.dtd">
<!-- Generated by graphviz version 2.46.0 (20210118.1747)
 -->
<!-- Title: G Pages: 1 -->
<svg width="168pt" height="386pt"
 viewBox="0.00 0.00 168.00 386.00" xmlns="http://www.w3.org/2000/svg" xmlns:xlink="http://www.w3.org/1999/xlink">
<g id="graph0" class="graph" transform="scale(1 1) rotate(0) translate(4 382)">
<title>G</title>
<polygon fill="white" stroke="transparent" points="-4,4 -4,-382 164,-382 164,4 -4,4"/>
<!-- 0 -->
<g id="node1" class="node">
<title>0</title>
<ellipse fill="none" stroke="black" cx="31" cy="-196" rx="27" ry="18"/>
<ellipse fill="none" stroke="black" cx="31" cy="-196" rx="31" ry="22"/>
<text text-anchor="middle" x="31" y="-192.3" font-family="Times,serif" font-size="14.00">0:0</text>
</g>
<!-- 0&#45;&gt;0 -->
<g id="edge1" class="edge">
<title>0&#45;&gt;0</title>
<path fill="none" stroke="black" d="M59.69,-204.59C70.78,-204.97 80,-202.11 80,-196 80,-191.9 75.84,-189.26 69.74,-188.08"/>
<polygon fill="black" stroke="black" points="69.9,-184.58 59.69,-187.41 69.43,-191.57 69.9,-184.58"/>
<text text-anchor="middle" x="91" y="-192.3" font-family="Times,serif" font-size="14.00">&#39;a&#39;:0</text>
</g>
<!-- 1 -->
<g id="node2" class="node">
<title>1</title>
<ellipse fill="none" stroke="black" cx="55" cy="-105" rx="27" ry="18"/>
<text text-anchor="middle" x="55" y="-101.3" font-family="Times,serif" font-size="14.00">1</text>
</g>
<!-- 0&#45;&gt;1 -->
<g id="edge2" class="edge">
<title>0&#45;&gt;1</title>
<path fill="none" stroke="black" d="M20.32,-175.24C16.13,-164.79 13.31,-151.89 18,-141 20.46,-135.28 24.38,-130.05 28.75,-125.49"/>
<polygon fill="black" stroke="black" points="31.4,-127.8 36.38,-118.45 26.65,-122.66 31.4,-127.8"/>
<text text-anchor="middle" x="29" y="-144.8" font-family="Times,serif" font-size="14.00">&#39;b&#39;:0</text>
</g>
<!-- 1&#45;&gt;0 -->
<g id="edge3" class="edge">
<title>1&#45;&gt;0</title>
<path fill="none" stroke="black" d="M50.48,-122.78C47.33,-134.44 43.05,-150.32 39.3,-164.22"/>
<polygon fill="black" stroke="black" points="35.91,-163.34 36.69,-173.91 42.67,-165.16 35.91,-163.34"/>
<text text-anchor="middle" x="57" y="-144.8" font-family="Times,serif" font-size="14.00">&#39;a&#39;:0</text>
</g>
<!-- 2 -->
<g id="node3" class="node">
<title>2</title>
<ellipse fill="none" stroke="black" cx="93" cy="-18" rx="27" ry="18"/>
<text text-anchor="middle" x="93" y="-14.3" font-family="Times,serif" font-size="14.00">2</text>
</g>
<!-- 1&#45;&gt;2 -->
<g id="edge4" class="edge">
<title>1&#45;&gt;2</title>
<path fill="none" stroke="black" d="M48.61,-87.49C45.74,-77.36 43.99,-64.39 49,-54 52.38,-46.99 57.93,-40.95 63.96,-35.96"/>
<polygon fill="black" stroke="black" points="66.34,-38.55 72.33,-29.8 62.2,-32.91 66.34,-38.55"/>
<text text-anchor="middle" x="60" y="-57.8" font-family="Times,serif" font-size="14.00">&#39;b&#39;:0</text>
</g>
<!-- 2&#45;&gt;1 -->
<g id="edge6" class="edge">
<title>2&#45;&gt;1</title>
<path fill="none" stroke="black" d="M85.73,-35.69C81.47,-45.42 75.97,-57.92 71,-69 69.63,-72.05 68.19,-75.24 66.75,-78.4"/>
<polygon fill="black" stroke="black" points="63.5,-77.09 62.54,-87.64 69.87,-80 63.5,-77.09"/>
<text text-anchor="middle" x="88" y="-57.8" font-family="Times,serif" font-size="14.00">&#39;b&#39;:0</text>
</g>
<!-- 2&#45;&gt;2 -->
<g id="edge5" class="edge">
<title>2&#45;&gt;2</title>
<path fill="none" stroke="black" d="M117.53,-25.75C128.51,-26.49 138,-23.91 138,-18 138,-14.03 133.72,-11.56 127.57,-10.59"/>
<polygon fill="black" stroke="black" points="127.65,-7.09 117.53,-10.25 127.41,-14.09 127.65,-7.09"/>
<text text-anchor="middle" x="149" y="-14.3" font-family="Times,serif" font-size="14.00">&#39;a&#39;:0</text>
</g>
<!-- 3 -->
<g id="node4" class="node">
<title>3</title>
<ellipse fill="none" stroke="black" cx="80" cy="-287" rx="27" ry="18"/>
<text text-anchor="middle" x="80" y="-283.3" font-family="Times,serif" font-size="14.00">3</text>
</g>
<!-- 3&#45;&gt;0 -->
<g id="edge7" class="edge">
<title>3&#45;&gt;0</title>
<path fill="none" stroke="black" d="M71.01,-269.68C64.26,-257.41 54.83,-240.29 46.83,-225.75"/>
<polygon fill="black" stroke="black" points="49.7,-223.71 41.81,-216.64 43.57,-227.09 49.7,-223.71"/>
<text text-anchor="middle" x="70" y="-239.8" font-family="Times,serif" font-size="14.00">&#39;a&#39;:0</text>
</g>
<!-- 3&#45;&gt;2 -->
<g id="edge8" class="edge">
<title>3&#45;&gt;2</title>
<path fill="none" stroke="black" d="M89.72,-269.92C97.2,-256.56 106.92,-236.76 111,-218 117.92,-186.14 109.94,-93.87 103,-54 102.53,-51.29 101.93,-48.49 101.26,-45.71"/>
<polygon fill="black" stroke="black" points="104.6,-44.67 98.62,-35.92 97.84,-46.49 104.6,-44.67"/>
<text text-anchor="middle" x="124" y="-144.8" font-family="Times,serif" font-size="14.00">&#39;b&#39;:0</text>
</g>
<!-- s -->
<!-- s&#45;&gt;3 -->
<g id="edge9" class="edge">
<title>s&#45;&gt;3</title>
<path fill="none" stroke="black" d="M80,-341.81C80,-333.79 80,-324.05 80,-315.07"/>
<polygon fill="black" stroke="black" points="83.5,-315.03 80,-305.03 76.5,-315.03 83.5,-315.03"/>
</g>
</g>
</svg>
