<?xml version="1.0" encoding="UTF-8" standalone="no"?>
<!DOCTYPE svg PUBLIC "-//W3C//DTD SVG 1.1//EN"
 "http://www.w3.org/Graphics/SVG/1.1/DTD/svg11.dtd">
<!-- Generated by graphviz version 2.46.0 (20210118.1747)
 -->
<!-- Title: G Pages: 1 -->
<svg width="206pt" height="139pt"
 viewBox="0.00 0.00 206.00 139.00" xmlns="http://www.w3.org/2000/svg" xmlns:xlink="http://www.w3.org/1999/xlink">
<g id="graph0" class="graph" transform="scale(1 1) rotate(0) translate(4 135)">
<title>G</title>
<polygon fill="white" stroke="transparent" points="-4,4 -4,-135 202,-135 202,4 -4,4"/>
<!-- 0 -->
<g id="node1" class="node">
<title>0</title>
<ellipse fill="none" stroke="black" cx="99" cy="-22" rx="27" ry="18"/>
<ellipse fill="none" stroke="black" cx="99" cy="-22" rx="31" ry="22"/>
<text text-anchor="middle" x="99" y="-18.3" font-family="Times,serif" font-size="14.00">0:&#39;x&#39;</text>
</g>
<!-- 1 -->
<!-- 1&#45;&gt;0 -->
<g id="edge1" class="edge">
<title>1&#45;&gt;0</title>
<path fill="none" stroke="black" d="M39.21,-96.9C49.64,-84.01 64.88,-65.17 77.37,-49.74"/>
<polygon fill="black" stroke="black" points="80.41,-51.55 83.97,-41.57 74.96,-47.15 80.41,-51.55"/>
<text text-anchor="middle" x="77.5" y="-65.8" font-family="Times,serif" font-size="14.00">&#39;a&#39;:&#39;&#39;</text>
</g>
<!-- 2 -->
<!-- 2&#45;&gt;0 -->
<g id="edge2" class="edge">
<title>2&#45;&gt;0</title>
<path fill="none" stroke="black" d="M99,-94.84C99,-83.44 99,-68.13 99,-54.58"/>
<polygon fill="black" stroke="black" points="102.5,-54.19 99,-44.19 95.5,-54.19 102.5,-54.19"/>
<text text-anchor="middle" x="109" y="-65.8" font-family="Times,serif" font-size="14.00">&#39;b&#39;:&#39;&#39;</text>
</g>
<!-- 3 -->
<!-- 3&#45;&gt;0 -->
<g id="edge3" class="edge">
<title>3&#45;&gt;0</title>
<path fill="none" stroke="black" d="M158.79,-96.9C148.36,-84.01 133.12,-65.17 120.63,-49.74"/>
<polygon fill="black" stroke="black" points="123.04,-47.15 114.03,-41.57 117.59,-51.55 123.04,-47.15"/>
<text text-anchor="middle" x="150.5" y="-65.8" font-family="Times,serif" font-size="14.00">&#39;c&#39;:&#39;&#39;</text>
</g>
</g>
</svg>
