<?xml version="1.0" encoding="UTF-8" standalone="no"?>
<!DOCTYPE svg PUBLIC "-//W3C//DTD SVG 1.1//EN"
 "http://www.w3.org/Graphics/SVG/1.1/DTD/svg11.dtd">
<!-- Generated by graphviz version 2.46.0 (20210118.1747)
 -->
<!-- Title: G Pages: 1 -->
<svg width="181pt" height="139pt"
 viewBox="0.00 0.00 180.85 139.00" xmlns="http://www.w3.org/2000/svg" xmlns:xlink="http://www.w3.org/1999/xlink">
<g id="graph0" class="graph" transform="scale(1 1) rotate(0) translate(4 135)">
<title>G</title>
<polygon fill="white" stroke="transparent" points="-4,4 -4,-135 176.85,-135 176.85,4 -4,4"/>
<!-- 0 -->
<g id="node1" class="node">
<title>0</title>
<ellipse fill="none" stroke="black" cx="35.85" cy="-22" rx="31.71" ry="18"/>
<ellipse fill="none" stroke="black" cx="35.85" cy="-22" rx="35.69" ry="22"/>
<text text-anchor="middle" x="35.85" y="-18.3" font-family="Times,serif" font-size="14.00">0:3 &#39;y&#39;</text>
</g>
<!-- 1 -->
<g id="node2" class="node">
<title>1</title>
<ellipse fill="none" stroke="black" cx="129.85" cy="-22" rx="36.3" ry="18"/>
<ellipse fill="none" stroke="black" cx="129.85" cy="-22" rx="40.29" ry="22"/>
<text text-anchor="middle" x="129.85" y="-18.3" font-family="Times,serif" font-size="14.00">1:10 &#39;x&#39;</text>
</g>
<!-- 2 -->
<!-- 2&#45;&gt;0 -->
<g id="edge1" class="edge">
<title>2&#45;&gt;0</title>
<path fill="none" stroke="black" d="M35.85,-94.84C35.85,-83.44 35.85,-68.13 35.85,-54.58"/>
<polygon fill="black" stroke="black" points="39.35,-54.19 35.85,-44.19 32.35,-54.19 39.35,-54.19"/>
<text text-anchor="middle" x="54.35" y="-65.8" font-family="Times,serif" font-size="14.00">&#39;b&#39;:5 &#39;v&#39;</text>
</g>
<!-- 3 -->
<!-- 3&#45;&gt;1 -->
<g id="edge2" class="edge">
<title>3&#45;&gt;1</title>
<path fill="none" stroke="black" d="M129.85,-94.84C129.85,-83.44 129.85,-68.13 129.85,-54.58"/>
<polygon fill="black" stroke="black" points="133.35,-54.19 129.85,-44.19 126.35,-54.19 133.35,-54.19"/>
<text text-anchor="middle" x="151.35" y="-65.8" font-family="Times,serif" font-size="14.00">&#39;a&#39;:20 &#39;u&#39;</text>
</g>
</g>
</svg>
