<?xml version="1.0" encoding="UTF-8" standalone="no"?>
<!DOCTYPE svg PUBLIC "-//W3C//DTD SVG 1.1//EN"
 "http://www.w3.org/Graphics/SVG/1.1/DTD/svg11.dtd">
<!-- Generated by graphviz version 2.46.0 (20210118.1747)
 -->
<!-- Title: G Pages: 1 -->
<svg width="98pt" height="226pt"
 viewBox="0.00 0.00 98.40 226.00" xmlns="http://www.w3.org/2000/svg" xmlns:xlink="http://www.w3.org/1999/xlink">
<g id="graph0" class="graph" transform="scale(1 1) rotate(0) translate(4 222)">
<title>G</title>
<polygon fill="white" stroke="transparent" points="-4,4 -4,-222 94.4,-222 94.4,4 -4,4"/>
<!-- 1 -->
<g id="node1" class="node">
<title>1</title>
<ellipse fill="none" stroke="black" cx="40.4" cy="-22" rx="36.3" ry="18"/>
<ellipse fill="none" stroke="black" cx="40.4" cy="-22" rx="40.29" ry="22"/>
<text text-anchor="middle" x="40.4" y="-18.3" font-family="Times,serif" font-size="14.00">1:10 &#39;x&#39;</text>
</g>
<!-- 0 -->
<g id="node2" class="node">
<title>0</title>
<ellipse fill="none" stroke="black" cx="40.4" cy="-113" rx="27" ry="18"/>
<text text-anchor="middle" x="40.4" y="-109.3" font-family="Times,serif" font-size="14.00">0</text>
</g>
<!-- 0&#45;&gt;1 -->
<g id="edge1" class="edge">
<title>0&#45;&gt;1</title>
<path fill="none" stroke="black" d="M40.4,-94.84C40.4,-83.44 40.4,-68.13 40.4,-54.58"/>
<polygon fill="black" stroke="black" points="43.9,-54.19 40.4,-44.19 36.9,-54.19 43.9,-54.19"/>
<text text-anchor="middle" x="65.4" y="-65.8" font-family="Times,serif" font-size="14.00">&#39;a&#39;:23 &#39;yu&#39;</text>
</g>
<!-- 2 -->
<!-- 2&#45;&gt;0 -->
<g id="edge2" class="edge">
<title>2&#45;&gt;0</title>
<path fill="none" stroke="black" d="M40.4,-181.8C40.4,-170.16 40.4,-154.55 40.4,-141.24"/>
<polygon fill="black" stroke="black" points="43.9,-141.18 40.4,-131.18 36.9,-141.18 43.9,-141.18"/>
<text text-anchor="middle" x="58.9" y="-152.8" font-family="Times,serif" font-size="14.00">&#39;b&#39;:5 &#39;v&#39;</text>
</g>
</g>
</svg>
