<?xml version="1.0" encoding="UTF-8" standalone="no"?>
<!DOCTYPE svg PUBLIC "-//W3C//DTD SVG 1.1//EN"
 "http://www.w3.org/Graphics/SVG/1.1/DTD/svg11.dtd">
<!-- Generated by graphviz version 2.46.0 (20210118.1747)
 -->
<!-- Title: G Pages: 1 -->
<svg width="95pt" height="226pt"
 viewBox="0.00 0.00 94.85 226.00" xmlns="http://www.w3.org/2000/svg" xmlns:xlink="http://www.w3.org/1999/xlink">
<g id="graph0" class="graph" transform="scale(1 1) rotate(0) translate(4 222)">
<title>G</title>
<polygon fill="white" stroke="transparent" points="-4,4 -4,-222 90.85,-222 90.85,4 -4,4"/>
<!-- 0 -->
<g id="node1" class="node">
<title>0</title>
<ellipse fill="none" stroke="black" cx="35.85" cy="-113" rx="27" ry="18"/>
<text text-anchor="middle" x="35.85" y="-109.3" font-family="Times,serif" font-size="14.00">0</text>
</g>
<!-- 1 -->
<g id="node2" class="node">
<title>1</title>
<ellipse fill="none" stroke="black" cx="35.85" cy="-22" rx="31.71" ry="18"/>
<ellipse fill="none" stroke="black" cx="35.85" cy="-22" rx="35.69" ry="22"/>
<text text-anchor="middle" x="35.85" y="-18.3" font-family="Times,serif" font-size="14.00">1:3 &#39;y&#39;</text>
</g>
<!-- 0&#45;&gt;1 -->
<g id="edge1" class="edge">
<title>0&#45;&gt;1</title>
<path fill="none" stroke="black" d="M35.85,-94.84C35.85,-83.44 35.85,-68.13 35.85,-54.58"/>
<polygon fill="black" stroke="black" points="39.35,-54.19 35.85,-44.19 32.35,-54.19 39.35,-54.19"/>
<text text-anchor="middle" x="61.35" y="-65.8" font-family="Times,serif" font-size="14.00">&#39;b&#39;:15 &#39;xv&#39;</text>
</g>
<!-- 2 -->
<!-- 2&#45;&gt;0 -->
<g id="edge2" class="edge">
<title>2&#45;&gt;0</title>
<path fill="none" stroke="black" d="M35.85,-181.8C35.85,-170.16 35.85,-154.55 35.85,-141.24"/>
<polygon fill="black" stroke="black" points="39.35,-141.18 35.85,-131.18 32.35,-141.18 39.35,-141.18"/>
<text text-anchor="middle" x="57.35" y="-152.8" font-family="Times,serif" font-size="14.00">&#39;a&#39;:20 &#39;u&#39;</text>
</g>
</g>
</svg>
