<?xml version="1.0" encoding="UTF-8" standalone="no"?>
<!DOCTYPE svg PUBLIC "-//W3C//DTD SVG 1.1//EN"
 "http://www.w3.org/Graphics/SVG/1.1/DTD/svg11.dtd">
<!-- Generated by graphviz version 2.46.0 (20210118.1747)
 -->
<!-- Title: G Pages: 1 -->
<svg width="156pt" height="226pt"
 viewBox="0.00 0.00 156.00 226.00" xmlns="http://www.w3.org/2000/svg" xmlns:xlink="http://www.w3.org/1999/xlink">
<g id="graph0" class="graph" transform="scale(1 1) rotate(0) translate(4 222)">
<title>G</title>
<polygon fill="white" stroke="transparent" points="-4,4 -4,-222 152,-222 152,4 -4,4"/>
<!-- 1 -->
<g id="node1" class="node">
<title>1</title>
<ellipse fill="none" stroke="black" cx="67" cy="-22" rx="27.12" ry="18"/>
<ellipse fill="none" stroke="black" cx="67" cy="-22" rx="31.1" ry="22"/>
<text text-anchor="middle" x="67" y="-18.3" font-family="Times,serif" font-size="14.00">1:0 &#39;&#39;</text>
</g>
<!-- 0 -->
<g id="node2" class="node">
<title>0</title>
<ellipse fill="none" stroke="black" cx="27" cy="-113" rx="27" ry="18"/>
<text text-anchor="middle" x="27" y="-109.3" font-family="Times,serif" font-size="14.00">0</text>
</g>
<!-- 0&#45;&gt;1 -->
<g id="edge1" class="edge">
<title>0&#45;&gt;1</title>
<path fill="none" stroke="black" d="M24.23,-94.67C23.39,-84.72 23.64,-72.22 28,-62 30.51,-56.1 34.38,-50.62 38.71,-45.75"/>
<polygon fill="black" stroke="black" points="41.24,-48.17 45.8,-38.6 36.27,-43.24 41.24,-48.17"/>
<text text-anchor="middle" x="56.5" y="-65.8" font-family="Times,serif" font-size="14.00">&#39;b&#39;:301 &#39;xz&#39;</text>
</g>
<!-- 2 -->
<!-- 2&#45;&gt;0 -->
<g id="edge2" class="edge">
<title>2&#45;&gt;0</title>
<path fill="none" stroke="black" d="M27,-181.8C27,-170.16 27,-154.55 27,-141.24"/>
<polygon fill="black" stroke="black" points="30.5,-141.18 27,-131.18 23.5,-141.18 30.5,-141.18"/>
<text text-anchor="middle" x="42" y="-152.8" font-family="Times,serif" font-size="14.00">&#39;a&#39;:0 &#39;&#39;</text>
</g>
<!-- 3 -->
<!-- 3&#45;&gt;1 -->
<g id="edge3" class="edge">
<title>3&#45;&gt;1</title>
<path fill="none" stroke="black" d="M99.74,-95.3C95.49,-85.57 89.99,-73.07 85,-62 83.62,-58.94 82.17,-55.75 80.72,-52.57"/>
<polygon fill="black" stroke="black" points="83.77,-50.83 76.41,-43.21 77.41,-53.76 83.77,-50.83"/>
<text text-anchor="middle" x="119.5" y="-65.8" font-family="Times,serif" font-size="14.00">&#39;b&#39;:320 &#39;yz&#39;</text>
</g>
</g>
</svg>
