<?xml version="1.0" encoding="UTF-8" standalone="no"?>
<!DOCTYPE svg PUBLIC "-//W3C//DTD SVG 1.1//EN"
 "http://www.w3.org/Graphics/SVG/1.1/DTD/svg11.dtd">
<!-- Generated by graphviz version 2.46.0 (20210118.1747)
 -->
<!-- Title: G Pages: 1 -->
<svg width="105pt" height="234pt"
 viewBox="0.00 0.00 105.20 234.00" xmlns="http://www.w3.org/2000/svg" xmlns:xlink="http://www.w3.org/1999/xlink">
<g id="graph0" class="graph" transform="scale(1 1) rotate(0) translate(4 230)">
<title>G</title>
<polygon fill="white" stroke="transparent" points="-4,4 -4,-230 101.2,-230 101.2,4 -4,4"/>
<!-- 1 -->
<g id="node1" class="node">
<title>1</title>
<ellipse fill="none" stroke="black" cx="48.2" cy="-22" rx="31.71" ry="18"/>
<ellipse fill="none" stroke="black" cx="48.2" cy="-22" rx="35.69" ry="22"/>
<text text-anchor="middle" x="48.2" y="-18.3" font-family="Times,serif" font-size="14.00">1:1 &#39;x&#39;</text>
</g>
<!-- 0 -->
<g id="node2" class="node">
<title>0</title>
<ellipse fill="none" stroke="black" cx="48.2" cy="-117" rx="44.38" ry="18"/>
<ellipse fill="none" stroke="black" cx="48.2" cy="-117" rx="48.39" ry="22"/>
<text text-anchor="middle" x="48.2" y="-113.3" font-family="Times,serif" font-size="14.00">0:320 &#39;zy&#39;</text>
</g>
<!-- 0&#45;&gt;1 -->
<g id="edge1" class="edge">
<title>0&#45;&gt;1</title>
<path fill="none" stroke="black" d="M48.2,-94.9C48.2,-82.89 48.2,-67.62 48.2,-54.24"/>
<polygon fill="black" stroke="black" points="51.7,-54.02 48.2,-44.02 44.7,-54.02 51.7,-54.02"/>
<text text-anchor="middle" x="72.7" y="-65.8" font-family="Times,serif" font-size="14.00">&#39;a&#39;:300 &#39;z&#39;</text>
</g>
<!-- 2 -->
<!-- 2&#45;&gt;0 -->
<g id="edge2" class="edge">
<title>2&#45;&gt;0</title>
<path fill="none" stroke="black" d="M48.2,-189.84C48.2,-178.44 48.2,-163.13 48.2,-149.58"/>
<polygon fill="black" stroke="black" points="51.7,-149.19 48.2,-139.19 44.7,-149.19 51.7,-149.19"/>
<text text-anchor="middle" x="63.7" y="-160.8" font-family="Times,serif" font-size="14.00">&#39;b&#39;:0 &#39;&#39;</text>
</g>
</g>
</svg>
