<?xml version="1.0" encoding="UTF-8" standalone="no"?>
<!DOCTYPE svg PUBLIC "-//W3C//DTD SVG 1.1//EN"
 "http://www.w3.org/Graphics/SVG/1.1/DTD/svg11.dtd">
<!-- Generated by graphviz version 2.46.0 (20210118.1747)
 -->
<!-- Title: G Pages: 1 -->
<svg width="249pt" height="139pt"
 viewBox="0.00 0.00 249.30 139.00" xmlns="http://www.w3.org/2000/svg" xmlns:xlink="http://www.w3.org/1999/xlink">
<g id="graph0" class="graph" transform="scale(1 1) rotate(0) translate(4 135)">
<title>G</title>
<polygon fill="white" stroke="transparent" points="-4,4 -4,-135 245.3,-135 245.3,4 -4,4"/>
<!-- 0 -->
<g id="node1" class="node">
<title>0</title>
<ellipse fill="none" stroke="black" cx="44.3" cy="-22" rx="40.11" ry="18"/>
<ellipse fill="none" stroke="black" cx="44.3" cy="-22" rx="44.09" ry="22"/>
<text text-anchor="middle" x="44.3" y="-18.3" font-family="Times,serif" font-size="14.00">0:320 &#39;y&#39;</text>
</g>
<!-- 0&#45;&gt;0 -->
<g id="edge1" class="edge">
<title>0&#45;&gt;0</title>
<path fill="none" stroke="black" d="M85.34,-30.6C97.31,-30.3 106.59,-27.44 106.59,-22 106.59,-18.26 102.21,-15.74 95.57,-14.43"/>
<polygon fill="black" stroke="black" points="95.64,-10.92 85.34,-13.4 94.94,-17.89 95.64,-10.92"/>
<text text-anchor="middle" x="131.59" y="-18.3" font-family="Times,serif" font-size="14.00">&#39;a&#39;:21 &#39;yx&#39;</text>
</g>
<!-- 1 -->
<!-- 1&#45;&gt;0 -->
<g id="edge2" class="edge">
<title>1&#45;&gt;0</title>
<path fill="none" stroke="black" d="M44.3,-94.84C44.3,-83.44 44.3,-68.13 44.3,-54.58"/>
<polygon fill="black" stroke="black" points="47.8,-54.19 44.3,-44.19 40.8,-54.19 47.8,-54.19"/>
<text text-anchor="middle" x="72.8" y="-65.8" font-family="Times,serif" font-size="14.00">&#39;a&#39;:4001 &#39;x&#39;</text>
</g>
<!-- 2 -->
<!-- 3 -->
<!-- 2&#45;&gt;3 -->
<g id="edge3" class="edge">
<title>2&#45;&gt;3</title>
<path fill="none" stroke="black" d="M201.3,-94.84C201.3,-82.28 201.3,-64.98 201.3,-50.5"/>
<polygon fill="black" stroke="black" points="204.8,-50.11 201.3,-40.11 197.8,-50.11 204.8,-50.11"/>
<text text-anchor="middle" x="221.3" y="-65.8" font-family="Times,serif" font-size="14.00">:4300 &#39;&#39;</text>
</g>
</g>
</svg>
