<?xml version="1.0" encoding="UTF-8" standalone="no"?>
<!DOCTYPE svg PUBLIC "-//W3C//DTD SVG 1.1//EN"
 "http://www.w3.org/Graphics/SVG/1.1/DTD/svg11.dtd">
<!-- Generated by graphviz version 2.46.0 (20210118.1747)
 -->
<!-- Title: G Pages: 1 -->
<svg width="71pt" height="212pt"
 viewBox="0.00 0.00 70.60 212.00" xmlns="http://www.w3.org/2000/svg" xmlns:xlink="http://www.w3.org/1999/xlink">
<g id="graph0" class="graph" transform="scale(1 1) rotate(0) translate(4 208)">
<title>G</title>
<polygon fill="white" stroke="transparent" points="-4,4 -4,-208 66.6,-208 66.6,4 -4,4"/>
<!-- 0 -->
<g id="node1" class="node">
<title>0</title>
<ellipse fill="none" stroke="black" cx="31.3" cy="-113" rx="27" ry="18"/>
<text text-anchor="middle" x="31.3" y="-109.3" font-family="Times,serif" font-size="14.00">0</text>
</g>
<!-- 1 -->
<g id="node2" class="node">
<title>1</title>
<ellipse fill="none" stroke="black" cx="31.3" cy="-22" rx="27.12" ry="18"/>
<ellipse fill="none" stroke="black" cx="31.3" cy="-22" rx="31.1" ry="22"/>
<text text-anchor="middle" x="31.3" y="-18.3" font-family="Times,serif" font-size="14.00">1:0 &#39;&#39;</text>
</g>
<!-- 0&#45;&gt;1 -->
<g id="edge1" class="edge">
<title>0&#45;&gt;1</title>
<path fill="none" stroke="black" d="M31.3,-94.84C31.3,-83.44 31.3,-68.13 31.3,-54.58"/>
<polygon fill="black" stroke="black" points="34.8,-54.19 31.3,-44.19 27.8,-54.19 34.8,-54.19"/>
<text text-anchor="middle" x="46.3" y="-65.8" font-family="Times,serif" font-size="14.00">&#39;a&#39;:0 &#39;&#39;</text>
</g>
<!-- s -->
<!-- s&#45;&gt;0 -->
<g id="edge2" class="edge">
<title>s&#45;&gt;0</title>
<path fill="none" stroke="black" d="M31.3,-167.81C31.3,-159.79 31.3,-150.05 31.3,-141.07"/>
<polygon fill="black" stroke="black" points="34.8,-141.03 31.3,-131.03 27.8,-141.03 34.8,-141.03"/>
</g>
</g>
</svg>
