<?xml version="1.0" encoding="UTF-8" standalone="no"?>
<!DOCTYPE svg PUBLIC "-//W3C//DTD SVG 1.1//EN"
 "http://www.w3.org/Graphics/SVG/1.1/DTD/svg11.dtd">
<!-- Generated by graphviz version 2.46.0 (20210118.1747)
 -->
<!-- Title: G Pages: 1 -->
<svg width="171pt" height="139pt"
 viewBox="0.00 0.00 171.00 139.00" xmlns="http://www.w3.org/2000/svg" xmlns:xlink="http://www.w3.org/1999/xlink">
<g id="graph0" class="graph" transform="scale(1 1) rotate(0) translate(4 135)">
<title>G</title>
<polygon fill="white" stroke="transparent" points="-4,4 -4,-135 167,-135 167,4 -4,4"/>
<!-- 0 -->
<g id="node1" class="node">
<title>0</title>
<ellipse fill="none" stroke="black" cx="31" cy="-22" rx="27" ry="18"/>
<ellipse fill="none" stroke="black" cx="31" cy="-22" rx="31" ry="22"/>
<text text-anchor="middle" x="31" y="-18.3" font-family="Times,serif" font-size="14.00">0</text>
</g>
<!-- 0&#45;&gt;0 -->
<g id="edge1" class="edge">
<title>0&#45;&gt;0</title>
<path fill="none" stroke="black" d="M59.69,-30.59C70.78,-30.97 80,-28.11 80,-22 80,-17.9 75.84,-15.26 69.74,-14.08"/>
<polygon fill="black" stroke="black" points="69.9,-10.58 59.69,-13.41 69.43,-17.57 69.9,-10.58"/>
<text text-anchor="middle" x="85.5" y="-18.3" font-family="Times,serif" font-size="14.00">&#39;a&#39;</text>
</g>
<!-- 1 -->
<!-- 1&#45;&gt;0 -->
<g id="edge2" class="edge">
<title>1&#45;&gt;0</title>
<path fill="none" stroke="black" d="M31,-94.84C31,-83.44 31,-68.13 31,-54.58"/>
<polygon fill="black" stroke="black" points="34.5,-54.19 31,-44.19 27.5,-54.19 34.5,-54.19"/>
<text text-anchor="middle" x="36.5" y="-65.8" font-family="Times,serif" font-size="14.00">&#39;a&#39;</text>
</g>
<!-- 2 -->
<!-- 3 -->
<!-- 2&#45;&gt;3 -->
<g id="edge3" class="edge">
<title>2&#45;&gt;3</title>
<path fill="none" stroke="black" d="M136,-94.84C136,-82.28 136,-64.98 136,-50.5"/>
<polygon fill="black" stroke="black" points="139.5,-50.11 136,-40.11 132.5,-50.11 139.5,-50.11"/>
</g>
</g>
</svg>
