<?xml version="1.0" encoding="UTF-8" standalone="no"?>
<!DOCTYPE svg PUBLIC "-//W3C//DTD SVG 1.1//EN"
 "http://www.w3.org/Graphics/SVG/1.1/DTD/svg11.dtd">
<!-- Generated by graphviz version 2.46.0 (20210118.1747)
 -->
<!-- Title: G Pages: 1 -->
<svg width="206pt" height="212pt"
 viewBox="0.00 0.00 206.27 212.00" xmlns="http://www.w3.org/2000/svg" xmlns:xlink="http://www.w3.org/1999/xlink">
<g id="graph0" class="graph" transform="scale(1 1) rotate(0) translate(4 208)">
<title>G</title>
<polygon fill="white" stroke="transparent" points="-4,4 -4,-208 202.27,-208 202.27,4 -4,4"/>
<!-- 0 -->
<g id="node1" class="node">
<title>0</title>
<ellipse fill="none" stroke="black" cx="89.27" cy="-113" rx="27" ry="18"/>
<text text-anchor="middle" x="89.27" y="-109.3" font-family="Times,serif" font-size="14.00">0</text>
</g>
<!-- 2 -->
<g id="node2" class="node">
<title>2</title>
<ellipse fill="none" stroke="black" cx="40.27" cy="-22" rx="27" ry="18"/>
<ellipse fill="none" stroke="black" cx="40.27" cy="-22" rx="31" ry="22"/>
<text text-anchor="middle" x="40.27" y="-18.3" font-family="Times,serif" font-size="14.00">2:&#39;&#39;</text>
</g>
<!-- 0&#45;&gt;2 -->
<g id="edge1" class="edge">
<title>0&#45;&gt;2</title>
<path fill="none" stroke="black" d="M62.56,-108.98C42.53,-105.17 16.41,-96.53 3.27,-77 -3.81,-66.48 2.31,-54.87 11.47,-45.13"/>
<polygon fill="black" stroke="black" points="14.05,-47.5 18.89,-38.08 9.23,-42.42 14.05,-47.5"/>
<text text-anchor="middle" x="19.77" y="-65.8" font-family="Times,serif" font-size="14.00">[a&#45;f]:&#39;&#39;</text>
</g>
<!-- 0&#45;&gt;2 -->
<g id="edge3" class="edge">
<title>0&#45;&gt;2</title>
<path fill="none" stroke="black" d="M74.81,-97.6C69.38,-91.61 63.51,-84.35 59.27,-77 55.08,-69.74 51.59,-61.4 48.79,-53.48"/>
<polygon fill="black" stroke="black" points="52.05,-52.2 45.61,-43.78 45.4,-54.38 52.05,-52.2"/>
<text text-anchor="middle" x="79.27" y="-65.8" font-family="Times,serif" font-size="14.00">[g&#45;m]:&#39;&#39;</text>
</g>
<!-- 1 -->
<g id="node3" class="node">
<title>1</title>
<ellipse fill="none" stroke="black" cx="139.27" cy="-22" rx="27" ry="18"/>
<ellipse fill="none" stroke="black" cx="139.27" cy="-22" rx="31" ry="22"/>
<text text-anchor="middle" x="139.27" y="-18.3" font-family="Times,serif" font-size="14.00">1:&#39;&#39;</text>
</g>
<!-- 0&#45;&gt;1 -->
<g id="edge2" class="edge">
<title>0&#45;&gt;1</title>
<path fill="none" stroke="black" d="M98.44,-95.68C105.33,-83.41 114.95,-66.29 123.12,-51.75"/>
<polygon fill="black" stroke="black" points="126.39,-53.07 128.24,-42.64 120.29,-49.64 126.39,-53.07"/>
<text text-anchor="middle" x="136.27" y="-65.8" font-family="Times,serif" font-size="14.00">[g&#45;m]:&#39;&#39;</text>
</g>
<!-- 0&#45;&gt;1 -->
<g id="edge4" class="edge">
<title>0&#45;&gt;1</title>
<path fill="none" stroke="black" d="M114.59,-106.71C130.69,-101.89 150.33,-92.99 160.27,-77 165.4,-68.76 163.68,-59.06 159.54,-50.17"/>
<polygon fill="black" stroke="black" points="162.5,-48.29 154.54,-41.3 156.4,-51.73 162.5,-48.29"/>
<text text-anchor="middle" x="180.77" y="-65.8" font-family="Times,serif" font-size="14.00">[n&#45;z]:&#39;&#39;</text>
</g>
<!-- s -->
<!-- s&#45;&gt;0 -->
<g id="edge5" class="edge">
<title>s&#45;&gt;0</title>
<path fill="none" stroke="black" d="M89.27,-167.81C89.27,-159.79 89.27,-150.05 89.27,-141.07"/>
<polygon fill="black" stroke="black" points="92.77,-141.03 89.27,-131.03 85.77,-141.03 92.77,-141.03"/>
</g>
</g>
</svg>
