<?xml version="1.0" encoding="UTF-8" standalone="no"?>
<!DOCTYPE svg PUBLIC "-//W3C//DTD SVG 1.1//EN"
 "http://www.w3.org/Graphics/SVG/1.1/DTD/svg11.dtd">
<!-- Generated by graphviz version 2.46.0 (20210118.1747)
 -->
<!-- Title: G Pages: 1 -->
<svg width="134pt" height="226pt"
 viewBox="0.00 0.00 134.00 226.00" xmlns="http://www.w3.org/2000/svg" xmlns:xlink="http://www.w3.org/1999/xlink">
<g id="graph0" class="graph" transform="scale(1 1) rotate(0) translate(4 222)">
<title>G</title>
<polygon fill="white" stroke="transparent" points="-4,4 -4,-222 130,-222 130,4 -4,4"/>
<!-- 0 -->
<g id="node1" class="node">
<title>0</title>
<ellipse fill="none" stroke="black" cx="99" cy="-113" rx="27" ry="18"/>
<text text-anchor="middle" x="99" y="-109.3" font-family="Times,serif" font-size="14.00">0</text>
</g>
<!-- 1 -->
<g id="node2" class="node">
<title>1</title>
<ellipse fill="none" stroke="black" cx="44" cy="-22" rx="27" ry="18"/>
<ellipse fill="none" stroke="black" cx="44" cy="-22" rx="31" ry="22"/>
<text text-anchor="middle" x="44" y="-18.3" font-family="Times,serif" font-size="14.00">1</text>
</g>
<!-- 0&#45;&gt;1 -->
<g id="edge1" class="edge">
<title>0&#45;&gt;1</title>
<path fill="none" stroke="black" d="M89.17,-96.09C81.49,-83.67 70.63,-66.09 61.48,-51.29"/>
<polygon fill="black" stroke="black" points="64.29,-49.17 56.05,-42.5 58.33,-52.85 64.29,-49.17"/>
<text text-anchor="middle" x="82" y="-65.8" font-family="Times,serif" font-size="14.00">&#39;b&#39;</text>
</g>
<!-- 2 -->
<!-- 2&#45;&gt;0 -->
<g id="edge2" class="edge">
<title>2&#45;&gt;0</title>
<path fill="none" stroke="black" d="M99,-181.8C99,-170.16 99,-154.55 99,-141.24"/>
<polygon fill="black" stroke="black" points="102.5,-141.18 99,-131.18 95.5,-141.18 102.5,-141.18"/>
<text text-anchor="middle" x="104.5" y="-152.8" font-family="Times,serif" font-size="14.00">&#39;a&#39;</text>
</g>
<!-- 3 -->
<!-- 3&#45;&gt;1 -->
<g id="edge3" class="edge">
<title>3&#45;&gt;1</title>
<path fill="none" stroke="black" d="M30.28,-94.84C32.49,-83.25 35.48,-67.61 38.1,-53.89"/>
<polygon fill="black" stroke="black" points="41.58,-54.35 40.01,-43.87 34.7,-53.03 41.58,-54.35"/>
<text text-anchor="middle" x="42" y="-65.8" font-family="Times,serif" font-size="14.00">&#39;b&#39;</text>
</g>
</g>
</svg>
