<?xml version="1.0" encoding="UTF-8" standalone="no"?>
<!DOCTYPE svg PUBLIC "-//W3C//DTD SVG 1.1//EN"
 "http://www.w3.org/Graphics/SVG/1.1/DTD/svg11.dtd">
<!-- Generated by graphviz version 2.46.0 (20210118.1747)
 -->
<!-- Title: G Pages: 1 -->
<svg width="152pt" height="386pt"
 viewBox="0.00 0.00 152.00 386.00" xmlns="http://www.w3.org/2000/svg" xmlns:xlink="http://www.w3.org/1999/xlink">
<g id="graph0" class="graph" transform="scale(1 1) rotate(0) translate(4 382)">
<title>G</title>
<polygon fill="white" stroke="transparent" points="-4,4 -4,-382 148,-382 148,4 -4,4"/>
<!-- 0 -->
<g id="node1" class="node">
<title>0</title>
<ellipse fill="none" stroke="black" cx="27" cy="-200" rx="27" ry="18"/>
<text text-anchor="middle" x="27" y="-196.3" font-family="Times,serif" font-size="14.00">0</text>
</g>
<!-- 0&#45;&gt;0 -->
<g id="edge1" class="edge">
<title>0&#45;&gt;0</title>
<path fill="none" stroke="black" d="M51.53,-207.75C62.51,-208.49 72,-205.91 72,-200 72,-196.03 67.72,-193.56 61.57,-192.59"/>
<polygon fill="black" stroke="black" points="61.65,-189.09 51.53,-192.25 61.41,-196.09 61.65,-189.09"/>
<text text-anchor="middle" x="77.5" y="-196.3" font-family="Times,serif" font-size="14.00">&#39;a&#39;</text>
</g>
<!-- 3 -->
<g id="node2" class="node">
<title>3</title>
<ellipse fill="none" stroke="black" cx="53" cy="-113" rx="27" ry="18"/>
<text text-anchor="middle" x="53" y="-109.3" font-family="Times,serif" font-size="14.00">3</text>
</g>
<!-- 0&#45;&gt;3 -->
<g id="edge2" class="edge">
<title>0&#45;&gt;3</title>
<path fill="none" stroke="black" d="M21.64,-182.29C19.33,-172.33 17.98,-159.6 22,-149 23.86,-144.1 26.75,-139.44 30.04,-135.22"/>
<polygon fill="black" stroke="black" points="32.7,-137.5 36.69,-127.68 27.45,-132.87 32.7,-137.5"/>
<text text-anchor="middle" x="28" y="-152.8" font-family="Times,serif" font-size="14.00">&#39;b&#39;</text>
</g>
<!-- 3&#45;&gt;0 -->
<g id="edge8" class="edge">
<title>3&#45;&gt;0</title>
<path fill="none" stroke="black" d="M47.87,-130.76C44.24,-142.62 39.3,-158.79 35.14,-172.4"/>
<polygon fill="black" stroke="black" points="31.71,-171.62 32.14,-182.21 38.41,-173.67 31.71,-171.62"/>
<text text-anchor="middle" x="48" y="-152.8" font-family="Times,serif" font-size="14.00">&#39;b&#39;</text>
</g>
<!-- 2 -->
<g id="node4" class="node">
<title>2</title>
<ellipse fill="none" stroke="black" cx="84" cy="-22" rx="27" ry="18"/>
<ellipse fill="none" stroke="black" cx="84" cy="-22" rx="31" ry="22"/>
<text text-anchor="middle" x="84" y="-18.3" font-family="Times,serif" font-size="14.00">2</text>
</g>
<!-- 3&#45;&gt;2 -->
<g id="edge7" class="edge">
<title>3&#45;&gt;2</title>
<path fill="none" stroke="black" d="M48.57,-94.82C46.84,-84.92 46.09,-72.42 50,-62 51.97,-56.74 55,-51.73 58.47,-47.15"/>
<polygon fill="black" stroke="black" points="61.22,-49.32 65.02,-39.43 55.88,-44.79 61.22,-49.32"/>
<text text-anchor="middle" x="55.5" y="-65.8" font-family="Times,serif" font-size="14.00">&#39;a&#39;</text>
</g>
<!-- 1 -->
<g id="node3" class="node">
<title>1</title>
<ellipse fill="none" stroke="black" cx="69" cy="-287" rx="27" ry="18"/>
<text text-anchor="middle" x="69" y="-283.3" font-family="Times,serif" font-size="14.00">1</text>
</g>
<!-- 1&#45;&gt;0 -->
<g id="edge4" class="edge">
<title>1&#45;&gt;0</title>
<path fill="none" stroke="black" d="M60.9,-269.61C54.86,-257.38 46.49,-240.44 39.58,-226.46"/>
<polygon fill="black" stroke="black" points="42.64,-224.75 35.07,-217.34 36.37,-227.85 42.64,-224.75"/>
<text text-anchor="middle" x="57" y="-239.8" font-family="Times,serif" font-size="14.00">&#39;b&#39;</text>
</g>
<!-- 1&#45;&gt;2 -->
<g id="edge3" class="edge">
<title>1&#45;&gt;2</title>
<path fill="none" stroke="black" d="M76.23,-269.62C81.79,-256.08 89.01,-236.2 92,-218 101.43,-160.7 94.65,-92.72 89.13,-54.05"/>
<polygon fill="black" stroke="black" points="92.56,-53.32 87.63,-43.95 85.64,-54.36 92.56,-53.32"/>
<text text-anchor="middle" x="101.5" y="-152.8" font-family="Times,serif" font-size="14.00">&#39;a&#39;</text>
</g>
<!-- 2&#45;&gt;3 -->
<g id="edge6" class="edge">
<title>2&#45;&gt;3</title>
<path fill="none" stroke="black" d="M76.89,-43.41C72.53,-55.93 66.9,-72.08 62.21,-85.57"/>
<polygon fill="black" stroke="black" points="58.82,-84.66 58.83,-95.26 65.43,-86.97 58.82,-84.66"/>
<text text-anchor="middle" x="76" y="-65.8" font-family="Times,serif" font-size="14.00">&#39;b&#39;</text>
</g>
<!-- 2&#45;&gt;2 -->
<g id="edge5" class="edge">
<title>2&#45;&gt;2</title>
<path fill="none" stroke="black" d="M112.69,-30.59C123.78,-30.97 133,-28.11 133,-22 133,-17.9 128.84,-15.26 122.74,-14.08"/>
<polygon fill="black" stroke="black" points="122.9,-10.58 112.69,-13.41 122.43,-17.57 122.9,-10.58"/>
<text text-anchor="middle" x="138.5" y="-18.3" font-family="Times,serif" font-size="14.00">&#39;a&#39;</text>
</g>
<!-- s -->
<!-- s&#45;&gt;1 -->
<g id="edge9" class="edge">
<title>s&#45;&gt;1</title>
<path fill="none" stroke="black" d="M69,-341.81C69,-333.79 69,-324.05 69,-315.07"/>
<polygon fill="black" stroke="black" points="72.5,-315.03 69,-305.03 65.5,-315.03 72.5,-315.03"/>
</g>
</g>
</svg>
