<?xml version="1.0" encoding="UTF-8" standalone="no"?>
<!DOCTYPE svg PUBLIC "-//W3C//DTD SVG 1.1//EN"
 "http://www.w3.org/Graphics/SVG/1.1/DTD/svg11.dtd">
<!-- Generated by graphviz version 2.46.0 (20210118.1747)
 -->
<!-- Title: G Pages: 1 -->
<svg width="150pt" height="299pt"
 viewBox="0.00 0.00 149.94 299.00" xmlns="http://www.w3.org/2000/svg" xmlns:xlink="http://www.w3.org/1999/xlink">
<g id="graph0" class="graph" transform="scale(1 1) rotate(0) translate(4 295)">
<title>G</title>
<polygon fill="white" stroke="transparent" points="-4,4 -4,-295 145.94,-295 145.94,4 -4,4"/>
<!-- 0 -->
<g id="node1" class="node">
<title>0</title>
<ellipse fill="none" stroke="black" cx="55.94" cy="-18" rx="27" ry="18"/>
<text text-anchor="middle" x="55.94" y="-14.3" font-family="Times,serif" font-size="14.00">0</text>
</g>
<!-- 0&#45;&gt;0 -->
<g id="edge1" class="edge">
<title>0&#45;&gt;0</title>
<path fill="none" stroke="black" d="M82.73,-21.93C92.72,-22.06 100.94,-20.75 100.94,-18 100.94,-16.28 97.73,-15.13 92.88,-14.53"/>
<polygon fill="black" stroke="black" points="92.88,-11.03 82.73,-14.07 92.56,-18.02 92.88,-11.03"/>
<text text-anchor="middle" x="106.44" y="-14.3" font-family="Times,serif" font-size="14.00">&#39;a&#39;</text>
</g>
<!-- 0&#45;&gt;0 -->
<g id="edge2" class="edge">
<title>0&#45;&gt;0</title>
<path fill="none" stroke="black" d="M81.17,-24.94C99.98,-27.37 118.94,-25.05 118.94,-18 118.94,-12.21 106.18,-9.62 91.21,-10.21"/>
<polygon fill="black" stroke="black" points="90.84,-6.73 81.17,-11.06 91.43,-13.7 90.84,-6.73"/>
<text text-anchor="middle" x="124.94" y="-14.3" font-family="Times,serif" font-size="14.00">&#39;b&#39;</text>
</g>
<!-- 1 -->
<g id="node2" class="node">
<title>1</title>
<ellipse fill="none" stroke="black" cx="27.94" cy="-200" rx="27" ry="18"/>
<text text-anchor="middle" x="27.94" y="-196.3" font-family="Times,serif" font-size="14.00">1</text>
</g>
<!-- 1&#45;&gt;0 -->
<g id="edge4" class="edge">
<title>1&#45;&gt;0</title>
<path fill="none" stroke="black" d="M19.08,-182.74C8.27,-160.66 -7.28,-120.15 3.94,-87 9.88,-69.45 22.37,-52.86 33.62,-40.47"/>
<polygon fill="black" stroke="black" points="36.4,-42.62 40.75,-32.96 31.33,-37.8 36.4,-42.62"/>
<text text-anchor="middle" x="9.94" y="-105.3" font-family="Times,serif" font-size="14.00">&#39;b&#39;</text>
</g>
<!-- 2 -->
<g id="node3" class="node">
<title>2</title>
<ellipse fill="none" stroke="black" cx="55.94" cy="-109" rx="27" ry="18"/>
<ellipse fill="none" stroke="black" cx="55.94" cy="-109" rx="31" ry="22"/>
<text text-anchor="middle" x="55.94" y="-105.3" font-family="Times,serif" font-size="14.00">2</text>
</g>
<!-- 1&#45;&gt;2 -->
<g id="edge3" class="edge">
<title>1&#45;&gt;2</title>
<path fill="none" stroke="black" d="M25.87,-181.93C25.27,-172.07 25.52,-159.57 28.94,-149 30.28,-144.86 32.22,-140.76 34.45,-136.87"/>
<polygon fill="black" stroke="black" points="37.54,-138.53 40.05,-128.24 31.67,-134.72 37.54,-138.53"/>
<text text-anchor="middle" x="34.44" y="-152.8" font-family="Times,serif" font-size="14.00">&#39;a&#39;</text>
</g>
<!-- 2&#45;&gt;0 -->
<g id="edge5" class="edge">
<title>2&#45;&gt;0</title>
<path fill="none" stroke="black" d="M55.94,-86.91C55.94,-74.78 55.94,-59.41 55.94,-46.36"/>
<polygon fill="black" stroke="black" points="59.44,-46.07 55.94,-36.07 52.44,-46.07 59.44,-46.07"/>
<text text-anchor="middle" x="61.44" y="-57.8" font-family="Times,serif" font-size="14.00">&#39;a&#39;</text>
</g>
<!-- 2&#45;&gt;1 -->
<g id="edge6" class="edge">
<title>2&#45;&gt;1</title>
<path fill="none" stroke="black" d="M49.99,-130.83C47.06,-140.89 43.42,-153.1 39.94,-164 39.04,-166.81 38.08,-169.74 37.1,-172.65"/>
<polygon fill="black" stroke="black" points="33.73,-171.72 33.82,-182.31 40.35,-173.97 33.73,-171.72"/>
<text text-anchor="middle" x="49.94" y="-152.8" font-family="Times,serif" font-size="14.00">&#39;b&#39;</text>
</g>
<!-- 3 -->
<g id="node4" class="node">
<title>3</title>
<ellipse fill="none" stroke="black" cx="110.94" cy="-200" rx="27" ry="18"/>
<text text-anchor="middle" x="110.94" y="-196.3" font-family="Times,serif" font-size="14.00">3</text>
</g>
<!-- 3&#45;&gt;0 -->
<g id="edge8" class="edge">
<title>3&#45;&gt;0</title>
<path fill="none" stroke="black" d="M110.74,-181.82C110,-159.41 107.08,-119.27 95.94,-87 90.54,-71.37 81.34,-55.37 73.13,-42.81"/>
<polygon fill="black" stroke="black" points="75.89,-40.65 67.38,-34.33 70.09,-44.57 75.89,-40.65"/>
<text text-anchor="middle" x="111.94" y="-105.3" font-family="Times,serif" font-size="14.00">&#39;b&#39;</text>
</g>
<!-- 3&#45;&gt;2 -->
<g id="edge7" class="edge">
<title>3&#45;&gt;2</title>
<path fill="none" stroke="black" d="M101.11,-183.09C93.43,-170.67 82.57,-153.09 73.42,-138.29"/>
<polygon fill="black" stroke="black" points="76.22,-136.17 67.99,-129.5 70.27,-139.85 76.22,-136.17"/>
<text text-anchor="middle" x="93.44" y="-152.8" font-family="Times,serif" font-size="14.00">&#39;a&#39;</text>
</g>
<!-- s -->
<!-- s&#45;&gt;3 -->
<g id="edge9" class="edge">
<title>s&#45;&gt;3</title>
<path fill="none" stroke="black" d="M110.94,-254.81C110.94,-246.79 110.94,-237.05 110.94,-228.07"/>
<polygon fill="black" stroke="black" points="114.44,-228.03 110.94,-218.03 107.44,-228.03 114.44,-228.03"/>
</g>
</g>
</svg>
