<?xml version="1.0" encoding="UTF-8" standalone="no"?>
<!DOCTYPE svg PUBLIC "-//W3C//DTD SVG 1.1//EN"
 "http://www.w3.org/Graphics/SVG/1.1/DTD/svg11.dtd">
<!-- Generated by graphviz version 2.46.0 (20210118.1747)
 -->
<!-- Title: G Pages: 1 -->
<svg width="70pt" height="299pt"
 viewBox="0.00 0.00 70.00 299.00" xmlns="http://www.w3.org/2000/svg" xmlns:xlink="http://www.w3.org/1999/xlink">
<g id="graph0" class="graph" transform="scale(1 1) rotate(0) translate(4 295)">
<title>G</title>
<polygon fill="white" stroke="transparent" points="-4,4 -4,-295 66,-295 66,4 -4,4"/>
<!-- 0 -->
<g id="node1" class="node">
<title>0</title>
<ellipse fill="none" stroke="black" cx="31" cy="-200" rx="27" ry="18"/>
<text text-anchor="middle" x="31" y="-196.3" font-family="Times,serif" font-size="14.00">3</text>
</g>
<!-- 2 -->
<g id="node2" class="node">
<title>2</title>
<ellipse fill="none" stroke="black" cx="31" cy="-109" rx="27" ry="18"/>
<ellipse fill="none" stroke="black" cx="31" cy="-109" rx="31" ry="22"/>
<text text-anchor="middle" x="31" y="-105.3" font-family="Times,serif" font-size="14.00">2</text>
</g>
<!-- 0&#45;&gt;2 -->
<g id="edge1" class="edge">
<title>0&#45;&gt;2</title>
<path fill="none" stroke="black" d="M31,-181.84C31,-170.44 31,-155.13 31,-141.58"/>
<polygon fill="black" stroke="black" points="34.5,-141.19 31,-131.19 27.5,-141.19 34.5,-141.19"/>
<text text-anchor="middle" x="36.5" y="-152.8" font-family="Times,serif" font-size="14.00">&#39;a&#39;</text>
</g>
<!-- 1 -->
<g id="node3" class="node">
<title>1</title>
<ellipse fill="none" stroke="black" cx="31" cy="-18" rx="27" ry="18"/>
<text text-anchor="middle" x="31" y="-14.3" font-family="Times,serif" font-size="14.00">1</text>
</g>
<!-- 2&#45;&gt;1 -->
<g id="edge3" class="edge">
<title>2&#45;&gt;1</title>
<path fill="none" stroke="black" d="M20.14,-88.18C15.86,-78.05 12.5,-65.46 15,-54 15.67,-50.9 16.65,-47.75 17.79,-44.67"/>
<polygon fill="black" stroke="black" points="21.11,-45.8 21.83,-35.23 14.68,-43.04 21.11,-45.8"/>
<text text-anchor="middle" x="21" y="-57.8" font-family="Times,serif" font-size="14.00">&#39;b&#39;</text>
</g>
<!-- 1&#45;&gt;2 -->
<g id="edge2" class="edge">
<title>1&#45;&gt;2</title>
<path fill="none" stroke="black" d="M31,-36.07C31,-47.61 31,-63.18 31,-76.89"/>
<polygon fill="black" stroke="black" points="27.5,-76.91 31,-86.91 34.5,-76.91 27.5,-76.91"/>
<text text-anchor="middle" x="36.5" y="-57.8" font-family="Times,serif" font-size="14.00">&#39;a&#39;</text>
</g>
<!-- s -->
<!-- s&#45;&gt;0 -->
<g id="edge4" class="edge">
<title>s&#45;&gt;0</title>
<path fill="none" stroke="black" d="M31,-254.81C31,-246.79 31,-237.05 31,-228.07"/>
<polygon fill="black" stroke="black" points="34.5,-228.03 31,-218.03 27.5,-228.03 34.5,-228.03"/>
</g>
</g>
</svg>
